<?xml version="1.0" encoding="utf-8"?>
<!-- Generator: Adobe Illustrator 19.2.0, SVG Export Plug-In . SVG Version: 6.00 Build 0)  -->
<svg version="1.1" id="Layer_1" xmlns="http://www.w3.org/2000/svg" xmlns:xlink="http://www.w3.org/1999/xlink" x="0px" y="0px"
	 viewBox="0 0 2481 2073" style="enable-background:new 0 0 2481 2073;" xml:space="preserve">
<style type="text/css">
	.st0{fill:#FC4349;stroke:#2C3E50;stroke-width:9;stroke-miterlimit:10;}
	.st1{fill:#2C3E50;}
	.st2{fill:#FFFFFF;}
	.st3{fill:#FC4349;}
</style>
<path id="svg_2" class="st0" d="M1250.7,1296.7c-17.8-87.3-49.1-160-87.1-227.3c-28.2-50-60.8-96.1-91-144.5
	c-10.1-16.2-18.8-33.3-28.5-50.1c-19.4-33.5-35.1-72.5-34.1-122.9c1-49.3,15.2-88.9,35.8-121.2c33.8-53.2,90.5-96.8,166.5-108.3
	c62.2-9.4,120.5,6.5,161.8,30.6c33.8,19.7,59.9,46.1,79.8,77.2c20.7,32.4,35.1,70.8,36.3,120.8c0.6,25.6-3.6,49.3-9.5,69
	c-6,19.9-15.6,36.6-24.1,54.4c-16.7,34.7-37.6,66.5-58.7,98.3C1335.2,1067.5,1276.4,1164.2,1250.7,1296.7z"/>
<title>google-pin</title>
<title>Layer 1</title>
<g>
	<path class="st1" d="M639.3,1498.5h-10.5v-135.7H447.1v135.7h-10.5v-284.4h10.5v138.1h181.6v-138.1h10.5V1498.5z"/>
	<path class="st1" d="M749.8,1460.2l7.8,21.1h1.2l1.2-3.1l73-191h11.7l-93.9,246.5c-5.7,14.8-12.4,26.9-20,36.2
		c-7.6,9.3-19.8,14-36.4,14c-2.5,0-5.2-0.2-8.2-0.7c-3-0.5-5.2-0.9-6.6-1.5l1.8-10c1.4,0.4,3.6,0.8,6.4,1.2c2.9,0.4,5.1,0.6,6.6,0.6
		c12,0,21.3-3.5,28-10.5c6.7-7,12.7-17.5,17.9-31.3l12.7-34.4l-84.2-210.2h11.5L749.8,1460.2z"/>
	<path class="st1" d="M1028.5,1396.7c0,32.6-7,58.3-21.1,77.3c-14.1,19-33.5,28.5-58.2,28.5c-16.5,0-31-3.3-43.3-10
		s-21.9-15.6-28.8-27v114.1h-10.5v-292.6h8.2l2.1,37.9c7-13,16.6-23.2,28.7-30.7s26.5-11.1,43.2-11.1c24.9,0,44.4,9.9,58.5,29.6
		c14.1,19.7,21.2,46.3,21.2,79.8V1396.7z M1017.7,1392.6c0-29.3-5.9-53.1-17.7-71.4c-11.8-18.3-28.8-27.4-51.1-27.4
		c-20.4,0-36.3,5.1-47.7,15.4c-11.3,10.3-19.4,22.9-24.2,37.9v98.8c5.2,14.1,13.9,25.3,26.2,33.6c12.2,8.3,27.6,12.5,46.1,12.5
		c22.3,0,39.2-8.6,50.9-25.8c11.7-17.2,17.5-40.4,17.5-69.5V1392.6z"/>
	<path class="st1" d="M1140,1502.6c-24.1,0-44.9-9.7-62.4-29.2c-17.5-19.5-26.3-43.7-26.3-72.6v-12.5c0-30.3,8.5-55.4,25.4-75.3
		c16.9-19.9,37.8-29.8,62.7-29.8c23.8,0,43.3,7.8,58.3,23.4s22.6,36.6,22.6,62.9v16.2h-158.4v2.5v12.5c0,25.5,7.5,47.1,22.5,64.7
		c15,17.6,33.5,26.5,55.7,26.5c15.8,0,28.9-2.1,39.6-6.4c10.6-4.3,19.7-10.7,27.2-19.3l5.7,8.2c-8.3,9.2-18.5,16.2-30.4,21
		C1170.1,1500.2,1156.1,1502.6,1140,1502.6z M1139.4,1293.8c-21,0-38.4,7.7-52.3,22.9c-13.9,15.3-21.8,34.4-23.6,57.3l0.6,1.2h145.7
		v-6.4c0-21.5-6.5-39.4-19.5-53.6C1177.1,1300.9,1160.2,1293.8,1139.4,1293.8z"/>
	<path class="st1" d="M1349.7,1214.1l116.4,267.6h1.2l116.8-267.6h15.4v284.4h-10.5v-265.8l-1.2-0.4L1471,1498.5h-8.4l-116.2-264.8
		l-1.2,0.4v264.5h-10.5v-284.4H1349.7z"/>
	<path class="st1" d="M1786.7,1459.4c-7.3,12.8-18.2,23.1-32.6,31.2s-32,12-52.5,12c-19.7,0-35.1-5.4-46.3-16.1
		c-11.2-10.7-16.8-25.2-16.8-43.5c0-17.7,8.4-32.5,25.1-44.5c16.7-12,37.7-18,62.8-18h60.4v-30.9c0-17.6-5.6-31.3-16.9-41.1
		c-11.3-9.8-27.1-14.7-47.6-14.7c-19.1,0-34.5,4.6-46.2,13.9c-11.7,9.2-17.5,21.2-17.5,35.7l-8.8-0.4l-0.4-1
		c-0.8-16.4,5.6-30.3,19.1-41.7c13.5-11.4,31.4-17.1,53.7-17.1c22.7,0,40.8,5.7,54.5,17.2c13.7,11.5,20.5,28,20.5,49.6v105.9
		c0,7.4,0.4,14.6,1.3,21.7c0.8,7,2.2,14,4.2,20.9H1791c-1.7-9.2-2.8-16.2-3.4-20.8c-0.6-4.6-0.9-9.6-0.9-14.9V1459.4z
		 M1701.6,1492.3c21,0,38.7-4.6,53.2-13.9c14.5-9.2,25.2-22.5,31.9-39.6v-47.5H1727c-21.9,0-40.3,5-55.4,15.1
		c-15,10.1-22.6,22.6-22.6,37.4c0,14.2,4.8,25.8,14.4,34.9C1673,1487.7,1685.7,1492.3,1701.6,1492.3z"/>
	<path class="st1" d="M2008.8,1396.7c0,32.6-7,58.3-21.1,77.3c-14.1,19-33.5,28.5-58.2,28.5c-16.5,0-31-3.3-43.3-10
		s-21.9-15.6-28.8-27v114.1h-10.5v-292.6h8.2l2.1,37.9c7-13,16.6-23.2,28.7-30.7s26.5-11.1,43.2-11.1c24.9,0,44.4,9.9,58.5,29.6
		c14.1,19.7,21.2,46.3,21.2,79.8V1396.7z M1998,1392.6c0-29.3-5.9-53.1-17.7-71.4c-11.8-18.3-28.8-27.4-51.1-27.4
		c-20.4,0-36.3,5.1-47.7,15.4c-11.3,10.3-19.4,22.9-24.2,37.9v98.8c5.2,14.1,13.9,25.3,26.2,33.6c12.2,8.3,27.6,12.5,46.1,12.5
		c22.3,0,39.2-8.6,50.9-25.8c11.7-17.2,17.5-40.4,17.5-69.5V1392.6z"/>
</g>
<ellipse id="svg_4_2_" class="st1" cx="1250" cy="746.9" rx="152.2" ry="149.7"/>
<g>
	<path class="st2" d="M1239.6,677.9l56.5,129.9h0.6l56.7-129.9h7.5v138h-5.1v-129l-0.6-0.2L1298.5,816h-4.1L1238,687.4l-0.6,0.2V816
		h-5.1v-138H1239.6z"/>
</g>
<g>
	<path class="st3" d="M1237.6,816h-5.1v-65.9h-88.2V816h-5.1v-138h5.1v67h88.2v-67h5.1V816z"/>
</g>
</svg>
