<?xml version="1.0" encoding="utf-8"?>
<!-- Generator: Adobe Illustrator 19.2.0, SVG Export Plug-In . SVG Version: 6.00 Build 0)  -->
<svg version="1.1" id="Layer_1" xmlns="http://www.w3.org/2000/svg" xmlns:xlink="http://www.w3.org/1999/xlink" x="0px" y="0px"
	 viewBox="0 0 2481 2073" style="enable-background:new 0 0 2481 2073;" xml:space="preserve">
<style type="text/css">
	.st0{fill:#FC4349;stroke:#2C3E50;stroke-width:9;stroke-miterlimit:10;}
	.st1{fill:#2C3E50;}
	.st2{fill:#FFFFFF;}
	.st3{fill:#FC4349;}
</style>
<path id="svg_2" class="st0" d="M1250.7,1296.7c-17.8-87.3-49.1-160-87.1-227.3c-28.2-50-60.8-96.1-91-144.5
	c-10.1-16.2-18.8-33.3-28.5-50.1c-19.4-33.5-35.1-72.5-34.1-122.9c1-49.3,15.2-88.9,35.8-121.2c33.8-53.2,90.5-96.8,166.5-108.3
	c62.2-9.4,120.5,6.5,161.8,30.6c33.8,19.7,59.9,46.1,79.8,77.2c20.7,32.4,35.1,70.8,36.3,120.8c0.6,25.6-3.6,49.3-9.5,69
	c-6,19.9-15.6,36.6-24.1,54.4c-16.7,34.7-37.6,66.5-58.7,98.3C1335.2,1067.5,1276.4,1164.2,1250.7,1296.7z"/>
<title>google-pin</title>
<title>Layer 1</title>
<ellipse id="svg_4_2_" class="st1" cx="1250" cy="746.9" rx="152.2" ry="149.7"/>
<g>
	<path class="st2" d="M1239.6,677.9l56.5,129.9h0.6l56.7-129.9h7.5v138h-5.1v-129l-0.6-0.2L1298.5,816h-4.1L1238,687.4l-0.6,0.2V816
		h-5.1v-138H1239.6z"/>
</g>
<g>
	<path class="st3" d="M1237.6,816h-5.1v-65.9h-88.2V816h-5.1v-138h5.1v67h88.2v-67h5.1V816z"/>
</g>
</svg>
