<?xml version="1.0" encoding="utf-8"?>
<!-- Generator: Adobe Illustrator 19.2.0, SVG Export Plug-In . SVG Version: 6.00 Build 0)  -->
<svg version="1.1" id="Layer_1" xmlns="http://www.w3.org/2000/svg" xmlns:xlink="http://www.w3.org/1999/xlink" x="0px" y="0px"
	 viewBox="0 0 2481 2073" style="enable-background:new 0 0 2481 2073;" xml:space="preserve">
<style type="text/css">
	.st0{fill:#FFFFFF;stroke:#2C3E50;stroke-width:6;stroke-miterlimit:10;}
	.st1{fill:#2C3E50;}
	.st2{fill:#FFFFFF;}
	.st3{fill:#FC4349;}
</style>
<path class="st0" d="M1524.1,232.5l-678.4,87.9c-19.6,2.5-33.6,20.7-31.1,40.3L956,1451.4c2.5,19.6,20.7,33.6,40.3,31.1l678.4-87.9
	c19.6-2.5,33.6-20.7,31.1-40.3L1564.5,263.5C1561.9,243.9,1543.8,229.9,1524.1,232.5z"/>
<title>google-pin</title>
<title>Layer 1</title>
<path class="st1" d="M1082.1,1161.8H868.7c-59.4,0-108,48.6-108,108v213.4c0,59.4,48.6,108,108,108h213.4c59.4,0,108-48.6,108-108
	v-213.4C1190.1,1210.4,1141.5,1161.8,1082.1,1161.8z"/>
<ellipse class="st2" cx="877.4" cy="1460.9" rx="63.1" ry="59.5"/>
<ellipse class="st2" cx="877.4" cy="1296.5" rx="63.1" ry="59.5"/>
<ellipse class="st2" cx="1073.3" cy="1296.5" rx="63.1" ry="59.5"/>
<ellipse class="st2" cx="1073.3" cy="1460.9" rx="63.1" ry="59.5"/>
<path class="st1" d="M1619.8,1152.6l-190.7-95.9c-53.1-26.7-118.3-5.1-145,48l-95.9,190.7c-26.7,53.1-5.1,118.3,48,145l190.7,95.9
	c53.1,26.7,118.3,5.1,145-48l95.9-190.7C1694.5,1244.5,1672.9,1179.3,1619.8,1152.6z"/>
<ellipse transform="matrix(0.4492 -0.8934 0.8934 0.4492 -371.7082 1989.9117)" class="st2" cx="1428.1" cy="1296.4" rx="59.5" ry="63.1"/>
<ellipse transform="matrix(0.7384 -0.6743 0.6743 0.7384 -213.9397 1025.6842)" class="st3" cx="1215.1" cy="788.6" rx="126" ry="178.5"/>
<ellipse transform="matrix(0.3023 -0.9532 0.9532 0.3023 169.2453 1773.8258)" class="st3" cx="1296.3" cy="771.3" rx="178.5" ry="126"/>
</svg>
