<?xml version="1.0" encoding="utf-8"?>
<!-- Generator: Adobe Illustrator 19.2.0, SVG Export Plug-In . SVG Version: 6.00 Build 0)  -->
<svg version="1.1" id="Layer_1" xmlns="http://www.w3.org/2000/svg" xmlns:xlink="http://www.w3.org/1999/xlink" x="0px" y="0px"
	 viewBox="0 0 2481 2073" style="enable-background:new 0 0 2481 2073;" xml:space="preserve">
<style type="text/css">
	.st0{fill:#2C3E50;}
	.st1{fill:#FC4349;}
	.st2{fill:none;stroke:#2C3E50;stroke-width:30;stroke-miterlimit:10;}
	.st3{fill:#FFFFFF;}
</style>
<title>google-pin</title>
<title>Layer 1</title>
<title>google-pin</title>
<title>Layer 1</title>
<title>google-pin</title>
<title>Layer 1</title>
<g>
	<path class="st0" d="M1271.5,1159.7c0.1,19.7-17,37-36.8,37.4c-21.2,0.4-38.2-16.8-37.8-38.4c0.4-20.4,16.9-36.3,37.5-36.1
		C1254.5,1122.8,1271.5,1139.8,1271.5,1159.7z"/>
	<path class="st0" d="M1215.4,1262.4c20.9-0.4,37.3,14.7,38.3,35.2c1,20.1-17.4,39.2-37.7,39c-19.7-0.2-36.6-17.2-36.8-37.2
		C1179.1,1278.4,1194.3,1262.8,1215.4,1262.4z"/>
	<path class="st1" d="M1136.1,796.2c41.8-7.4,83.5-15.3,125.4-21.5c5.9-0.9,18.1,6.3,18.8,11c2,13.6,1.3,28.2-2.1,41.5
		c-1.2,4.7-14.1,10.8-19.9,9.3c-41.2-10.5-81.9-22.8-122.7-34.6C1135.8,800.1,1136,798.1,1136.1,796.2z"/>
	<path class="st0" d="M1232.5,726.5c-12.8,8.2-20.8,17.4-27.7,16.6c-7.1-0.8-13.1-11.3-19.5-17.5c7.1-6.5,13.5-17,21.4-18.3
		C1212.7,706.4,1220.6,717.1,1232.5,726.5z"/>
	<path class="st0" d="M1347.9,726.9c-13.7,8.2-22.1,17.3-28.6,16.1c-7.1-1.3-12.4-12.1-18.6-18.7c6.7-6.1,13.2-16.6,20.3-17
		C1327.6,706.8,1335,716.9,1347.9,726.9z"/>
	<path class="st0" d="M1233.1,1393.9c20.9-0.4,37.3,14.7,38.3,35.2c1,20.1-17.4,39.2-37.7,39c-19.7-0.2-36.6-17.2-36.8-37.2
		C1196.8,1410,1212,1394.3,1233.1,1393.9z"/>
	<path class="st2" d="M1455.4,983.9c34.1-40.2,54.6-92.3,54.6-149.2c0-127.6-103.4-231-231-231s-231,103.4-231,231
		c0,56.9,20.6,108.9,54.6,149.2H1455.4z"/>
	<path class="st2" d="M1477.9,1068.4h-393c-74.4,58.4-122.3,149.1-122.3,251c0,176.1,142.7,318.8,318.8,318.8
		s318.8-142.7,318.8-318.8C1600.2,1217.5,1552.4,1126.8,1477.9,1068.4z"/>
	<rect x="1182.5" y="338.6" class="st0" width="178.1" height="215.3"/>
	<rect x="1135.6" y="521.9" class="st0" width="271.8" height="50.4"/>
	<rect x="1179.3" y="461.6" class="st3" width="181.3" height="36.9"/>
</g>
</svg>
