<?xml version="1.0" encoding="utf-8"?>
<!-- Generator: Adobe Illustrator 19.2.0, SVG Export Plug-In . SVG Version: 6.00 Build 0)  -->
<svg version="1.1" id="Layer_1" xmlns="http://www.w3.org/2000/svg" xmlns:xlink="http://www.w3.org/1999/xlink" x="0px" y="0px"
	 viewBox="0 0 2481 2073" style="enable-background:new 0 0 2481 2073;" xml:space="preserve">
<style type="text/css">
	.st0{fill:#2C3E50;}
	.st1{fill:#FFFFFF;}
	.st2{fill:#FC4349;}
</style>
<title>google-pin</title>
<title>Layer 1</title>
<g>
	<path class="st0" d="M595.9,944.9c-50.8-95.8-101.7-191.6-152.5-287.3c-3.3-6.3-6.1-12.7-7.6-19.6c-5.9-26.9,6.2-55,29.9-69
		c2.1-1.3,4.3-2.5,6.5-3.6c87.2-46.3,174.5-92.6,261.7-139c10.7-5.7,21.8-9.5,34-9.2c24.7,0.7,43.5,11.8,56.1,33.2
		c0.8,1.3,1.4,2.7,2.2,4c101.7,191.6,203.4,383.1,305.1,574.7c3.2,6,5.9,12.1,7.5,18.8c6.6,28.5-6.4,57-32.5,71.6
		c-0.8,0.5-1.7,0.9-2.6,1.4c-87.9,46.6-175.7,93.2-263.6,139.9c-9.3,4.9-18.9,8.4-29.5,8.7c-26.9,0.6-47-11-60.5-34.2
		c-0.8-1.4-1.6-2.9-2.3-4.4C697.1,1135.5,646.5,1040.2,595.9,944.9z M925.6,746.2c-46.9-88.3-93.8-176.7-140.7-265
		c-0.8-1.5-1.5-3-2.4-4.4c-2.8-4.5-8.1-6.1-13-4c-1.1,0.5-2.2,1.1-3.3,1.7c-90.8,48.2-181.6,96.4-272.4,144.5
		c-7.1,3.7-10.3,9.4-5.6,18.3c94.3,177.4,188.5,354.8,282.6,532.2c0.5,0.9,0.9,1.7,1.4,2.6c3.1,5.3,8.4,6.9,13.8,4.3
		c1.1-0.5,2.2-1.2,3.3-1.7c90.4-48,180.8-96.1,271.3-143.9c9.4-4.9,10.1-11.2,5.9-19.1C1019.4,923.1,972.5,834.6,925.6,746.2z
		 M965.7,1134.3c-5.5-10.5-18.3-14.6-28.7-9.1c-10.2,5.4-14.2,18.3-8.9,28.5c5.4,10.4,18.3,14.4,28.8,8.9
		C967.3,1157.2,971.1,1144.7,965.7,1134.3z M618.8,525.3c11.6-6.1,23.2-12.3,34.7-18.4c1.1-0.6,2.2-1.1,3.2-1.9
		c1.5-1.2,1.9-3.3,1.1-4.9c-0.8-1.6-2.6-2.5-4.5-2.1c-1.1,0.3-2,0.8-3,1.3c-23.6,12.5-47.3,25.1-70.9,37.6c-0.9,0.5-1.7,0.9-2.5,1.5
		c-1.7,1.4-2.1,3.3-1.1,5.2c1,1.8,2.8,2.5,5,1.8c1-0.4,2-1,3-1.5C595.4,537.7,607.1,531.5,618.8,525.3z"/>
	<path class="st1" d="M925.6,746.2c47,88.5,93.9,177,141,265.4c4.2,7.9,3.5,14.2-5.9,19.1c-90.5,47.8-180.9,95.9-271.3,143.9
		c-1.1,0.6-2.2,1.2-3.3,1.7c-5.5,2.6-10.7,1-13.8-4.3c-0.5-0.8-0.9-1.7-1.4-2.6C676.6,992,582.5,814.5,488.2,637.1
		c-4.7-8.9-1.5-14.5,5.6-18.3c90.9-48,181.6-96.3,272.4-144.5c1.1-0.6,2.2-1.2,3.3-1.7c4.9-2.1,10.2-0.5,13,4
		c0.9,1.4,1.6,2.9,2.4,4.4C831.8,569.5,878.7,657.8,925.6,746.2z"/>
	<path class="st1" d="M965.7,1134.3c5.4,10.4,1.5,22.9-8.9,28.4c-10.5,5.5-23.4,1.5-28.8-8.9c-5.3-10.3-1.3-23.1,8.9-28.5
		C947.4,1119.7,960.2,1123.8,965.7,1134.3z"/>
	<path class="st1" d="M618.8,525.3c-11.7,6.2-23.4,12.4-35.1,18.6c-1,0.5-1.9,1.1-3,1.5c-2.1,0.8-3.9,0-5-1.8
		c-1-1.8-0.7-3.8,1.1-5.2c0.7-0.6,1.6-1,2.5-1.5c23.6-12.6,47.3-25.1,70.9-37.6c1-0.5,2-1.1,3-1.3c1.9-0.5,3.8,0.5,4.5,2.1
		c0.8,1.6,0.4,3.7-1.1,4.9c-1,0.8-2.1,1.3-3.2,1.9C642,513,630.4,519.2,618.8,525.3z"/>
</g>
<g>
	<path class="st0" d="M1573.6,1766.1c-11.5,5.2-22.9,10.8-34.6,15.6c-30.7,12.6-62.4,19.8-95.8,14.9c-27.3-4.1-50.3-16.6-70.5-35.2
		c-4.5-4.2-4.1-7.3-1.4-12c36.5-64.6,73-129.2,109.3-193.9c13.9-24.9,27.4-50,40.5-74.2c16.1-0.3,32,0.7,47.5-1.2
		c38.7-4.8,71.5-23.2,101.4-47.2c33.2-26.7,62.6-57.3,84.7-93.5c42.3-69,69.1-143.3,63.1-226c-2.6-36.3-14.9-69.1-42.8-94.3
		c-4-3.7-1.6-6.5,0-9.7c17.7-35.1,35-70.5,53.2-105.4c27.5-52.6,55.7-104.9,83.6-157.4c0.6-1.1,1.4-2.2,2.4-3.7
		c19.3,11.4,35.8,25.5,50.4,42c4.3,4.9,8.7,9.8,13.1,14.7c5.6,9,11.2,18,16.7,26.9c0.4,1.5,0.5,3.2,1.2,4.5
		c22.5,44.7,30.2,92.5,30.5,141.9c0.5,74.8-14.9,147-38.3,217.6c-47.7,144.2-120.6,274.7-214.9,393.4
		c-39.5,49.7-82.8,95.8-132.6,135.4c-10.1,8-20.2,16-30.3,24.1C1597.8,1751,1585.7,1758.6,1573.6,1766.1z"/>
	<path class="st0" d="M1176.8,1674.7c-3.1-12.9,1.5-24,7.3-35.3c42.3-82.5,84.6-165,125.9-248c8.5-17.2,32.7-27.3,52.4-16
		c33.3,18.9,67.3,36.6,101,54.7c20.1,10.8,25.6,27.8,15.1,48.4c-31.6,61.8-63.3,123.6-95.2,185.4c-12.2,23.7-25.4,46.9-37,70.9
		c-9.2,19.1-29.4,23.2-46.1,14.1c-38.9-21.3-77.9-42.3-116.8-63.4C1181.3,1681.9,1179,1678.3,1176.8,1674.7z"/>
	<path class="st0" d="M1574.2,945.9c-5.3-10.4-6.2-20.4-0.7-30.7c46-87.3,92-174.7,138.1-262c8.5-16.1,29.8-22.7,45.9-14.1
		c37.1,19.7,74,39.6,110.9,59.7c14.6,8,19.4,26.4,11,42c-43.4,81.3-86.8,162.5-130.2,243.8c-3.2,6.1-6.5,12.1-9.8,18.1
		c-8.7,15.9-25.6,21.9-41.8,13.4c-37.9-19.8-75.4-40.3-113-60.8C1580.7,953.1,1577.7,949,1574.2,945.9z"/>
</g>
<g>
	<path class="st2" d="M1432.7,152.6c97.8,12,191.4,37.8,276.9,88.2c25.5,15,49.9,31.8,74.8,47.7c3,7.9-0.6,13.4-6.4,18.4
		c-4.8,4.1-9.3,8.6-13.6,13.2c-24.6,26.5-24.6,26.5-56,8.4c-2.4-1.4-5.1-2.2-7.7-3.3c-31.3-26.1-68.4-42.2-105.6-56.7
		c-151.9-59.2-304.6-60.2-457.2-2.3c-46.3,17.6-90.6,39.9-129.9,70.4c-14.1,10.9-21.4,8.9-32.4-2.9c-42.1-45.3-44.4-35.6,6.6-70.3
		c86.9-59.1,183.6-92.4,287.2-106.9c9.1-1.3,18.2-2.6,27.3-4"/>
	<path class="st2" d="M1355.9,268.9c129.5,2.3,235.4,35.9,329.6,105.1c12.8,9.4,13.6,15.6,1.9,25.8c-13.3,11.5-24,31-38.8,34.3
		c-15.1,3.4-29.6-15.5-44.6-24.4c-123.1-73.4-252.8-82-387.9-40.9c-45.6,13.9-87.1,36.6-127,62.3c-3.5,2.2-7.2,7.4-10.9,4.6
		c-18.1-13.6-33.7-30.1-47.6-47.8c-3.8-4.9,3.5-8.1,7.3-10.8c68.8-49.2,144.7-81.8,227.9-97.4
		C1300.2,273.2,1334.5,269.4,1355.9,268.9z"/>
	<path class="st2" d="M1366.3,394.1c81.8,0.9,157.9,27,226.6,76.1c9.8,7,12,12.1,1.7,20.9c-14.3,12.4-25.6,33.2-41.5,37.3
		c-15.4,3.9-30.5-16.9-46.9-24.7c-107.8-50.9-213.2-47.9-314.5,16.6c-16.9,10.8-26.9,10.5-38-4.9c-2.4-3.4-5.8-6.2-8.8-9.2
		c-28.1-27.6-33.3-23.6,6.4-49.3C1215.8,415.4,1286.5,394.4,1366.3,394.1z"/>
</g>
</svg>
