<?xml version="1.0" encoding="utf-8"?>
<!-- Generator: Adobe Illustrator 19.2.0, SVG Export Plug-In . SVG Version: 6.00 Build 0)  -->
<svg version="1.1" id="Layer_1" xmlns="http://www.w3.org/2000/svg" xmlns:xlink="http://www.w3.org/1999/xlink" x="0px" y="0px"
	 viewBox="0 0 2481 2073" style="enable-background:new 0 0 2481 2073;" xml:space="preserve">
<style type="text/css">
	.st0{fill:#FC4349;}
	.st1{fill:#2C3E50;}
</style>
<title>google-pin</title>
<title>Layer 1</title>
<g>
	<path class="st0" d="M1616.2,1625.7c-43.6-8.9-69.6-40-88.2-78.8c-51.2-106.4-102.1-212.9-152.2-319.9
		c-29.8-63.7-57.8-128.3-87.3-194c17.7-9.4,33.8-18,52.7-28c10.7,17.1,22,34.1,32.3,51.6c85,144.5,170.2,289,254.6,433.9
		c22.7,39,36.8,79.7,12.8,122C1632.7,1616.9,1624.5,1621.3,1616.2,1625.7z M1608.9,1592c3.8-2.1,7.7-4.2,11.5-6.3
		c1.1-15.5,7.1-32.7,2.2-46.2c-6.9-19.1-26-24-43-14.6c-16.8,9.3-23.3,28.1-11,44.2C1577.4,1580.5,1595.2,1584.6,1608.9,1592z"/>
	<path class="st0" d="M1121.8,583.8c105.8,96.9,134.9,229.5,172.3,357.9c2,6.8-2.2,20.2-7,21.8c-6.7,2.3-20.2-0.5-24.6-6.4
		c-56-75-115.8-147.7-164.4-227.6c-35.2-57.9-40.1-126.9-39.1-192.6c18.8,12.8,37.4,25.5,56.1,38.3
		C1117.2,578.1,1119.5,581,1121.8,583.8z"/>
	<path class="st0" d="M1323.1,530.4c11.6-13.5,21.4-29.8,35.6-39.3c8.4-5.6,23.7-0.2,35,0.2c-6,19.5-13,30.8-12.4,42.9
		c1.9,37.3,6.1,74.8,10.6,112.3c13.3,109.2-10.3,202.4-68.1,288.4c0-10.8-0.6-15.5,0.1-19.7c12.3-71.5,10.5-145.4-12.5-218.8
		c-15.9-50.6-8.7-92.5,3.9-135.5c3.1-10.5,5.5-21.3,8.2-31.9C1323.5,529,1323.1,530.4,1323.1,530.4z"/>
	<path class="st0" d="M906.1,750.6c5.3,2.5,10.5,6,15.9,7.4c50.8,13.7,97,32.5,136.8,81.5c47.5,58.6,109.4,96.8,174.3,130.7
		c-7.9,0.6-15.7,2.1-23.7,1.7c-90.4-4.5-174-38.5-250.7-104.9c-26.1-22.6-53-44-80.6-64c-9.4-6.8-22-7.3-38.5-12.3
		c-11-21.7,7-29.6,23.3-34.9c13.8-4.5,29.7-3.4,44.7-4.7L906.1,750.6z"/>
	<path class="st0" d="M1021.1,676.1c79.5,56.7,114.8,153.9,178.2,225.5c21.4,24.2,42.6,48.7,61.5,75.7
		c-149.7-69.9-252.2-195.7-329.6-354.1c30.4,17.8,60.8,35.6,91.3,53.3L1021.1,676.1z"/>
	<path class="st0" d="M1200.6,477.9c88.8,151.6,136.3,307.4,114.2,476.3c-5.9-5.7-9-7.3-9.7-9.6c-26.1-78.1-48.4-157.4-79.1-233.9
		c-18.4-45.9-27-89.7-27.4-135.5C1198.3,542.7,1199.8,510.4,1200.6,477.9z"/>
	<path class="st0" d="M1313.2,530c-10.2,30.3-20.3,60.5-30.2,90.1c-49.7-102.9-50.7-136.2-0.8-190.2c10.9,36.2,20.8,68.9,30.7,101.5
		C1312.9,531.4,1313.2,530,1313.2,530z"/>
	<path class="st0" d="M1116.8,565.6c-2.2-2.9-4.3-5.9-6.5-8.8c5.4-29.3,10.9-58.5,16.5-88.8c76.1,42.7,56.9,105.4,61.9,162.9
		C1164,608.4,1140.4,587,1116.8,565.6z"/>
	<path class="st0" d="M913.9,743.5c-21.8-25.4-43.6-50.8-65.3-76.2c1.3-4,2.6-8.1,3.9-12.1c27.9,6.2,60.5,3.8,82.4,20.7
		c27.6,21.2,46.5,58.1,74,94.7c-37.4-10.8-66.9-19.2-96.4-27.7C912.4,742.9,913.9,743.5,913.9,743.5z"/>
	<path class="st0" d="M1013.1,662.9c-35.2-24.8-44.8-61-49.1-107.5c25.3,8.1,48.5,14.5,71.2,23.6c5.3,2.1,10.8,13.1,12.5,20.5
		c7,31.7,12.6,63.5,19,96.3c-18.2-11.1-36.5-22.2-54.8-33.4C1011.8,662.4,1013.1,662.9,1013.1,662.9z"/>
	<path class="st0" d="M1256.6,989.4c22.1-11.8,44.8-23.8,69.3-36.8c4.4,20.9,22.2,43.6-1.4,54.2
		C1302.7,1016.6,1282.8,1041.9,1256.6,989.4z"/>
</g>
<g>
	<path class="st1" d="M275.2,584.5c-14.2,24.9-6.8,51.7-7.2,77.6c-0.7,51.5,0.8,103,1.4,154.6c-0.6,21.7-1.2,43.4-2,65.1
		c-0.3,8-4,14.5-14,13.9c-8.4-0.5-9.7-7.2-10.1-13.3c-0.4-7.2-0.2-14.5-0.2-21.8c0-235.9,0.7-471.7-0.8-707.6
		c-0.2-29.7,9.9-35.1,40-35c259.8,1,519.7,0.6,779.5,0.6c4,0,8.1-0.6,12,0.1c9.2,1.7,24.4-5.3,25.2,9.5
		c0.7,13.8-13.2,12.2-23.8,12.3c-24,0.1-48.3,2.2-71.9-0.5c-32.6-3.7-56.3,9.1-78.5,27.5c-48.1,40-74.7,89.9-83,148.2
		c-11.1,9.9,12.7,32.7-16.2,36c-19.5-50.7-9.4-99.4,12-147.3c7.5-16.7,17.1-32.3,30.4-52.8c-38.2-0.3-72.4-3.9-105.5,1.6
		c-51.6,8.6-69.4,47.3-85.1,87c-8.9,22.6-0.4,48.7-18,69.3c-24.1-5.4-21.7-25.2-24.7-40.4c-8.3-42,6.5-80.5,25.9-117.6
		c-9.2-14.3-24.2-6.9-36-6.9c-107.7-0.6-215.4-0.4-323-0.3c-8,0.3-16.1,0.7-24,2.1c-7.8,0.5-15.1-0.1-19.8-7
		c2.7,14,13.7,24.8,18.2,38.3c1.3,4,1.9,8,2.2,12.2c4,120.8,0.8,241.6,1.9,362.3C280.4,563.4,277.5,573.9,275.2,584.5z"/>
	<path class="st1" d="M642.6,575.7c22.4-58.9,69.5-97.5,127.4-127.1c11.2-5.7,22.6-11.1,34-16.6c10.4-5.9,21-11,33.9-8.2
		c6.8-1.2,13.6-2.5,20.4-3.7c1.4,23.4,29.6,21.2,40.9,35.1c0.5,10.5-3.1,16.9-16.4,13.4c-102.9-3.8-177.5,39.2-231.9,115.6
		C643.5,584.9,638.4,584,642.6,575.7z"/>
	<path class="st1" d="M324.8,758.2c-7.3-18.1,11.1-22.9,21.1-29.9c64.1-45.1,136.8-64.2,217.9-55.5c11.9,4.9,28.1-0.5,36.8,12.3
		c6.6,15.6,26.9,26.8,18,47.3C515.1,688.9,417.1,696.8,324.8,758.2z"/>
	<path class="st1" d="M618.5,732.4c-4.8-16.6-23-27.8-23-46.4c-1.7-16.7,11.2-14.6,22.6-14.4c18.3,30.4,37,60.7,54.5,91.4
		c5.3,9.3,22.2,21.9,4.2,30.2c-16.1,7.5-19.5-11.3-26.3-20.4C640.2,759.1,634.1,742.7,618.5,732.4z"/>
	<path class="st1" d="M618.1,671.6c-7.5,4.8-15,9.6-22.6,14.4c-10.6-4.4-21.2-8.8-31.8-13.2c10.7-0.6,26.4,3.8,13.7-15.4
		c-19-28.6-36.3-58.2-54.3-87.3c3.7-6.5,10-9.3,17.8-9.9c18.4,27.4,36.3,55.1,55.4,82.1c5.9,8.5,7.5,21.5,22.9,22.2
		C618.8,666.8,618.5,669.2,618.1,671.6z"/>
	<path class="st1" d="M882.7,468.6c5.5-4.5,11-8.9,16.4-13.4c25.5,12.7,51,25.4,76.5,38c8.5,4.2,17.1,9.1,11.4,19.4
		c-6.6,11.8-15.6,4.8-23.2,0.7C936.7,498.5,909.7,483.5,882.7,468.6z"/>
	<path class="st1" d="M843.4,388.3c-13.5-9.3-12.3-23.5-14.7-36.5c12.3-9.6-0.6-26.8,13.1-36C842.4,340,842.9,364.2,843.4,388.3z"/>
	<path class="st1" d="M642.6,575.7c2.7,2.8,5.4,5.7,8.2,8.5c-7.2,7.6,0.7,28.6-23.1,21.6C634.3,596.4,631.8,583.3,642.6,575.7z"/>
	<path class="st1" d="M295.2,570.3c26.8-48.6,77.9-57.7,129.6-66.8c17.3-3.1,36.4,7.1,52-6.2c12.4-6.7,17-0.9,18.6,9.6
		c-3,12.6,8.4,21.3,10.7,32.4c1.2,5.5,11.3,15.9-6.3,16C428.4,524.1,360.6,533.8,295.2,570.3z"/>
	<path class="st1" d="M499.8,555.3c8.5-16.2-18.8-26.9-8.2-43.4c3.1-4,6.6-4.3,10.5-0.9c25.2,8.4,28.4,31,38.7,49.1
		c-3.2,7.3-9.9,9.4-17.8,9.9C515.3,565.1,507.6,560.2,499.8,555.3z"/>
	<path class="st1" d="M310.5,147.8c88.6,38.1,169.8,88,255.8,130.3c24,11.8,47.2,25.1,71.1,37.1c6.6,3.3,14.2,14.2,22.2,1
		c9.2,16.2,22.5,26.1,41.5,34.9c47,21.6,91.3,48.2,136.7,72.7c-11.3,2.7-18.9,18-33.9,8.2c-31.6-17.2-61.8-37.3-95.1-51.1
		c-47.6-19.6-90.2-0.4-129.8,23.2c-26.2,15.6-43.2,38.9-57.4,63.8c-3.7,2-6.9,1.2-9.5-1.8c-6.6-49.3,31.8-76.2,65.2-104.5
		c31.4-26.7,33.1-26.5-2.7-44.8c-91.2-46.6-179-98.6-273-140.6c-11.8-6.1-21.6-14.2-28.2-25.1c-1.2-3.5-0.5-6.7,2.2-9.5
		c3.5-5.9,9.5-7.2,16.1-7.4C298.3,138.5,304.4,143.1,310.5,147.8z"/>
	<path class="st1" d="M275.5,148.8c11.2,4.9,19.5,12.4,24.6,22.7c34.2,28.2,49.2,67.7,71.9,102.6c41.1,63,82.4,125.9,121,190.2
		c6.2,10.3,15.8,19.9,10.4,33.2c-0.4,4.5-0.8,9-1.1,13.5c-3.5,0.3-7,0.6-10.5,0.9c-0.2-8.8-4.6-14.1-14.8-14.6
		c-62.2-96.9-124.1-194-186.8-290.7c-6.3-9.7-8.7-22.5-22-27.9c-0.3-2.4-0.4-4.8-0.4-7.2C263,161.9,256.3,151.6,275.5,148.8z"/>
	<path class="st1" d="M310.5,147.8c-9.7-0.5-15.2-5.9-18.8-13.4c127.7-0.4,255.4-0.7,383.2-1.1c5.3,0,14.5-6.6,12.9,5.1
		c-0.5,3.8-6.5,6.9-10,10.3c-4.4-11.3-15.2-7.6-23.7-7.6c-107.7-0.2-215.4-0.2-323.1-0.1C323.4,141,314.7,139,310.5,147.8z"/>
	<path class="st1" d="M275.5,148.8c-9.5,5.6-7.5,14.5-7.9,22.7c-11.1-5.9-18.7-14.4-14.9-26.2c4.3-13.4,15.4-1,23-3.5
		C275.6,144.1,275.6,146.5,275.5,148.8z"/>
	<path class="st1" d="M503.1,497.6c8.6-8.3-1.5-22.8,12-29.5c2.2-0.8,4.4-0.8,6.6-0.2C515.4,477.9,521.2,493.9,503.1,497.6z"/>
	<path class="st1" d="M861.1,458.1c-9.1,5-19.6,1.1-18.9-5.3c1.1-9.6,9.3-1.2,14.2,0.2C858.3,453.6,859.4,456.2,861.1,458.1z"/>
</g>
</svg>
