<?xml version="1.0" encoding="utf-8"?>
<!-- Generator: Adobe Illustrator 19.2.0, SVG Export Plug-In . SVG Version: 6.00 Build 0)  -->
<svg version="1.1" id="Layer_1" xmlns="http://www.w3.org/2000/svg" xmlns:xlink="http://www.w3.org/1999/xlink" x="0px" y="0px"
	 viewBox="0 0 2481 2073" style="enable-background:new 0 0 2481 2073;" xml:space="preserve">
<style type="text/css">
	.st0{fill:#FC4349;}
	.st1{fill:#2C3E50;}
</style>
<g>
	<path class="st0" d="M1761.2,772.1c-75.5,75.1-346.1,343.8-421.4,419.1c13.5,17.1,35,25.5,44.2,44.2
		c79-79.1,343.9-343.5,422.9-422.6c4.9-4.9,8.7-5.8,15.5-3.5c39.5,13.7,75,6.4,104.8-23.4c77.5-77.2,154.7-154.6,232-231.9
		c2.2-2.2,4-4.8,7.6-9.2c-19.4,0-36.4,0.5-53.4-0.2c-9.8-0.4-16.6,2.7-23.5,9.7c-55.3,55.8-111.1,111.2-166.6,166.9
		c-12.2,12.3-26.4,18.9-43.8,15.9c-19.2-3.3-32.7-14.4-38.7-33.2c-6.1-19.4-0.7-36.1,13.5-50.3c56.2-56.2,112.4-112.4,168.5-168.6
		c3-3,7.8-6.3,7.9-9.6c0.7-21.4,0.4-42.8,0.4-65.7c-3.1,2.1-4.3,2.7-5.1,3.6c-79.8,79.7-159.9,159.1-239,239.4
		c-27.2,27.6-33.1,61.9-20.8,98.5C1769.3,760.4,1767.8,765.5,1761.2,772.1z"/>
</g>
<title>google-pin</title>
<title>Layer 1</title>
<g>
	<path class="st1" d="M1098.7,1203.2c-23.3-38.5-78.1-150.3-93.7-185.7c-36.4-71.6-6.4-68,54.4-52.1c32.5,13,141.6,63.4,174.5,79.4
		c4.7,2.3,9,5.4,14.3,8.7"/>
	<path class="st0" d="M1012.6,1377.1c46.5,46.5,127.8,125.9,174.5,172.5c-35.6,29.2-291.6,244.5-358,188.5
		C770.3,1688.5,992.9,1410.9,1012.6,1377.1z"/>
	<path class="st0" d="M1186.2,1550.7l297.6-297.6c0,0,19.7-132.2-5.6-156.2c-25.3-24-168-17.4-168-17.4l-297.6,297.6L1186.2,1550.7z
		"/>
	<path class="st1" d="M1329.8,1481.1c46.5-46.5,125.9-127.8,172.5-174.5c29.2,35.6,284.5,318.8,228.6,385.1
		C1681.2,1750.5,1363.5,1500.8,1329.8,1481.1z"/>
</g>
<path class="st1" d="M314.1,515.3c9.1-12.5,16.9-26.3,27.7-37.2c58.5-59.4,117.6-118.2,176.6-177.1c33.3-33.2,51.1-37.7,90.6-11.7
	c49,32.3,96.7,67,142.1,104.2c51.1,41.9,99.2,87.5,148.3,131.8c38.5,34.8,57.9,79.6,58.2,130.3c0.2,40.8-6.6,81.7-10.3,122.5
	c-0.3,3.6-1.2,7.2-1.6,10.8c-6.1,56.5-6.1,56.5,34,96.7c39.8,39.8,83.6,83.6,123.3,123.4c4,4-51.2,54.8-54.4,51.5
	c-44.9-45-91.1-88.8-134.3-135.3c-18.2-19.6-37.4-26.1-62-22.7c-34.5,4.7-68.9,10.8-103.6,14.2c-74.2,7.2-140.6-8.4-191.9-67.9
	c-30.3-35.1-63-68.1-92.9-103.4c-55.4-65.4-113-129.4-149.8-208.3C314.1,529.9,314.1,522.6,314.1,515.3z M821,649.7
	c5.5-4.4,13.8-7.7,14.6-12.3c1.2-7-0.3-17.3-4.9-22c-74.9-75.9-150.5-151.2-225.9-226.6c-8.5-8.5-18.3-11.2-27.3-1.7
	c-8.8,9.3-6.1,18.8,2.5,27.4c75.1,75,150.1,150.1,225.3,225C809.1,643.3,814.5,645.5,821,649.7z M747.2,725
	c5.6-5.2,13.2-9,14.1-13.9c1.1-6.5-0.8-16.1-5.2-20.6c-75-75.9-150.5-151.1-225.9-226.5c-8.5-8.5-18-11.6-27.2-2.2
	c-8.9,9.1-6.6,18.7,2,27.4c75.1,75,150.1,150.1,225.3,225C734.3,718.3,740.2,720.6,747.2,725z M671.5,799.9
	c5.8-5,13.8-8.6,14.5-13.2c1-7-0.8-17.1-5.5-21.8c-74.6-75.5-149.8-150.4-224.8-225.5c-8.4-8.4-17.7-12.4-27.2-3.1
	c-9.9,9.6-6.9,19.5,2.1,28.5c74.7,74.6,149.4,149.4,224.2,223.9C658.9,792.8,664.7,795.3,671.5,799.9z"/>
</svg>
