<?xml version="1.0" encoding="utf-8"?>
<!-- Generator: Adobe Illustrator 19.2.0, SVG Export Plug-In . SVG Version: 6.00 Build 0)  -->
<svg version="1.1" id="Layer_1" xmlns="http://www.w3.org/2000/svg" xmlns:xlink="http://www.w3.org/1999/xlink" x="0px" y="0px"
	 viewBox="0 0 2481 2073" style="enable-background:new 0 0 2481 2073;" xml:space="preserve">
<style type="text/css">
	.st0{fill:#2C3E50;}
	.st1{fill:#FC4349;}
</style>
<title>google-pin</title>
<title>Layer 1</title>
<g>
	<path class="st0" d="M1472.5,1012c28.9,47.7,55.9,95.1,71.5,148.7c-2.8,1.7-4.9,3.3-7.3,4.4c-43.1,19.9-74.4,51.6-92.8,95.3
		c-3.8,9.1-8.1,11.2-16.6,7.1c-40.7-19.8-81.5-39.5-122.2-59.4c-5.8-2.8-11.1-6.7-17.7-10.8"/>
	<path class="st0" d="M1805,1478c-8.7,2.2-17.4,5.5-26.2,6.4c-75.4,8.2-149.1,1.4-218.8-30.4c-43.6-19.9-75.8-51.1-88.1-99.4
		c-15.7-60.9,13.3-125.9,69.4-155.4c55.8-29.3,126.6-16.4,167.5,30.7c16.1,18.5,24.8,40.4,26.2,64.5c1.3,23.1,0.2,46.3,0.8,69.4
		c0.3,13.4,0.7,27,3,40.1c5.2,29.7,23.1,49.8,50.3,62c5.3,2.4,10.7,4.8,16,7.3C1804.9,1474.9,1804.9,1476.5,1805,1478z"/>
	<path class="st1" d="M1640.1,753.2c-72.8-73.2-143.9-144.8-216.1-217.3c20.5-20.5,42.1-42,63.7-63.5c13.8-13.7,27.4-27.7,41.4-41.2
		c28.1-27.1,66.9-27.5,94.6-0.3c41.3,40.6,82.4,81.5,122.9,122.9c25.5,26,26.2,64.2,1.3,90.2
		C1712.7,680.8,1676.4,716.6,1640.1,753.2z"/>
	<path class="st1" d="M696.7,1477.5c15.6-88.5,30.5-173.5,45.3-257.4c70.7,71.1,141.2,142.1,211.2,212.5
		C870.5,1447,784.6,1462.1,696.7,1477.5z"/>
	<path class="st0" d="M1186.4,671.7c-57.6,57.6-173.1,172.9-230.8,230.7c-28.2-52.3-260.4-367.5-262.5-429.8
		c-1.6-46.3,25.1-70.6,71.2-67c9.2,0.7,18.5,1.8,27.5,3.9C840.2,420.5,1144.6,647.3,1186.4,671.7z"/>
	
		<rect x="779.1" y="832.1" transform="matrix(0.7071 -0.7071 0.7071 0.7071 -347.2545 1129.9305)" class="st1" width="822.4" height="304"/>
</g>
</svg>
