<?xml version="1.0" encoding="utf-8"?>
<!-- Generator: Adobe Illustrator 19.2.0, SVG Export Plug-In . SVG Version: 6.00 Build 0)  -->
<svg version="1.1" id="Layer_1" xmlns="http://www.w3.org/2000/svg" xmlns:xlink="http://www.w3.org/1999/xlink" x="0px" y="0px"
	 viewBox="0 0 2481 2073" style="enable-background:new 0 0 2481 2073;" xml:space="preserve">
<style type="text/css">
	.st0{fill:#2C3E50;}
	.st1{fill:none;stroke:#2C3E50;stroke-width:19;stroke-miterlimit:10;}
	.st2{fill:none;stroke:#2C3E50;stroke-width:15;stroke-miterlimit:10;}
	.st3{fill:#FC4349;}
</style>
<title>google-pin</title>
<title>Layer 1</title>
<title>google-pin</title>
<title>Layer 1</title>
<title>google-pin</title>
<title>Layer 1</title>
<g>
	<polygon class="st0" points="1573.3,589.6 1537.8,663.7 1379.4,588.6 1196.3,500.8 1608.8,515.5 	"/>
	<g>
		<path class="st1" d="M756.2,253.8L711,332.2c-1.4,2.4-0.6,5.6,1.9,7l0,0c2.4,1.4,5.6,0.6,7-1.9l45.2-78.3c1.4-2.4,0.6-5.6-1.9-7
			l0,0C760.7,250.5,757.6,251.4,756.2,253.8z"/>
		<path class="st1" d="M449.2,609.5l-70.9,56.2c-2.2,1.8-2.6,5-0.9,7.2l0,0c1.8,2.2,5,2.6,7.2,0.9l70.9-56.2c2.2-1.8,2.6-5,0.9-7.2
			l0,0C454.7,608.2,451.4,607.8,449.2,609.5z"/>
		<path class="st1" d="M417.5,519.4l-90.4-3.7c-2.8-0.1-5.2,2.1-5.3,4.9l0,0c-0.1,2.8,2.1,5.2,4.9,5.3l90.4,3.7
			c2.8,0.1,5.2-2.1,5.3-4.9l0,0C422.5,521.9,420.3,519.5,417.5,519.4z"/>
		<path class="st1" d="M508.2,340.2l-50.3-75.1c-1.6-2.4-4.8-3-7.1-1.4l0,0c-2.4,1.6-3,4.8-1.4,7.1l50.3,75.2c1.6,2.4,4.8,3,7.1,1.4
			l0,0C509.2,345.8,509.8,342.6,508.2,340.2z"/>
		<path class="st1" d="M610.6,218.3l-3.7,90.4c-0.1,2.8,2.1,5.2,4.9,5.3l0,0c2.8,0.1,5.2-2.1,5.3-4.9l3.7-90.4
			c0.1-2.8-2.1-5.2-4.9-5.3l0,0C613.1,213.2,610.7,215.4,610.6,218.3z"/>
		<path class="st1" d="M356.1,376.1l84.4,32.6c2.6,1,5.6-0.3,6.6-2.9l0,0c1-2.6-0.3-5.6-2.9-6.6l-84.4-32.6c-2.6-1-5.6,0.3-6.6,2.9
			l0,0C352.1,372.1,353.4,375.1,356.1,376.1z"/>
		<circle class="st2" cx="620.8" cy="504.8" r="165"/>
		<path class="st1" d="M924,532.1L924,532.1c0.1-2.8-2.1-5.2-5-5.3l-90.4-3.2c-2.8-0.1-5.2,2.1-5.3,5l0,0c-0.1,2.8,2.1,5.2,5,5.3
			l90.4,3.2C921.5,537.1,924,534.9,924,532.1z"/>
		<path class="st1" d="M512.1,676.5L512.1,676.5c-2.5-1.4-5.6-0.5-7,1.9l-44.8,78.6c-1.4,2.5-0.5,5.6,1.9,7l0,0
			c2.5,1.4,5.6,0.5,7-1.9l44.8-78.6C515.4,681.1,514.5,678,512.1,676.5z"/>
		<path class="st1" d="M707.3,698.9L707.3,698.9c-2.6,1.1-3.7,4.2-2.6,6.8l37.1,82.5c1.1,2.6,4.2,3.7,6.8,2.6l0,0
			c2.6-1.1,3.7-4.2,2.6-6.8L714,701.5C712.9,698.9,709.8,697.7,707.3,698.9z"/>
		<path class="st1" d="M882.8,368.6L882.8,368.6c-1.5-2.4-4.7-3.1-7.1-1.5l-76.1,48.9c-2.4,1.5-3.1,4.7-1.5,7.1l0,0
			c1.5,2.4,4.7,3.1,7.1,1.5l76.1-48.9C883.6,374.1,884.3,370.9,882.8,368.6z"/>
		<path class="st1" d="M878.7,677.4L878.7,677.4c1.4-2.5,0.5-5.6-1.9-7l-78.6-44.8c-2.5-1.4-5.6-0.5-7,1.9l0,0
			c-1.4,2.5-0.5,5.6,1.9,7l78.6,44.8C874.2,680.8,877.3,679.9,878.7,677.4z"/>
		<path class="st1" d="M607,817.5L607,817.5c2.8,0.6,5.5-1.3,6-4.1l17.1-88.8c0.6-2.8-1.3-5.5-4.1-6l0,0c-2.8-0.6-5.5,1.3-6,4.1
			L603,811.5C602.4,814.3,604.3,817,607,817.5z"/>
	</g>
	<polygon class="st3" points="1573.3,589.6 1537.8,663.7 1695.5,740.2 1878.6,828 1608.8,515.5 	"/>
	<polygon class="st0" points="1709.2,745.9 1537.8,663.7 1372,1009.4 1179.9,1410 1878.9,827.3 	"/>
	<polygon class="st3" points="1366.8,582.6 1537.8,663.7 1369.9,1013.7 1179.9,1410 1196.3,500.8 	"/>
	<g>
		<path class="st0" d="M1165.6,1448.1c-25.3,6.3-49.1,12.1-72.8,18.2c-4.4,1.1-8.6,3.7-12.7,5.9c-29,15.5-39.6,35.5-34.6,65.6
			c4.7,28.4,18.3,52.2,32.7,75.5c15,24.1,27,49.7,31.9,78.9c11.5,68.5-26.1,128-96.1,152.2c-22.9,7.9-45.9,11.1-68.8,9.6
			c-62.1-4.1-111-32.2-156-70.3c9.9-11.1,19.3-21.6,28.2-31.4c19.6,12.8,37.6,26.1,57.3,36.9c33.9,18.5,70.9,29.2,113.2,20.4
			c12.3-2.6,24.8-7.3,36.2-13.3c32.9-17.3,48.8-45.9,46-80.7c-2.3-29.5-14.2-54.5-28.9-78.2c-16.8-27.1-31.7-55.3-37.2-88.4
			c-8-47.9,11.7-86.1,57.6-111.8c34.2-19.1,70.1-25.8,107.6-27.3C1168,1424.1,1166.7,1437.7,1165.6,1448.1z"/>
	</g>
</g>
</svg>
