<?xml version="1.0" encoding="utf-8"?>
<!-- Generator: Adobe Illustrator 19.2.0, SVG Export Plug-In . SVG Version: 6.00 Build 0)  -->
<svg version="1.1" id="Layer_1" xmlns="http://www.w3.org/2000/svg" xmlns:xlink="http://www.w3.org/1999/xlink" x="0px" y="0px"
	 viewBox="0 0 2481 2073" style="enable-background:new 0 0 2481 2073;" xml:space="preserve">
<style type="text/css">
	.st0{fill:none;stroke:#57744B;stroke-width:46;stroke-miterlimit:10;}
	.st1{fill:none;stroke:#2C3E50;stroke-width:19;stroke-miterlimit:10;}
	.st2{fill:none;stroke:#2C3E50;stroke-width:15;stroke-miterlimit:10;}
</style>
<title>google-pin</title>
<title>Layer 1</title>
<title>google-pin</title>
<title>Layer 1</title>
<title>google-pin</title>
<title>Layer 1</title>
<g>
	<polygon class="st0" points="1103,1719.2 625.3,1719.2 864.2,1061 1103,402.8 1341.9,1061 1580.7,1719.2 	"/>
	<polygon class="st0" points="1404,1842.2 926.3,1842.2 1165.1,1183.9 1404,525.7 1642.8,1183.9 1881.7,1842.2 	"/>
	<polygon class="st0" points="1695,1719.2 1217.3,1719.2 1456.1,1061 1695,402.8 1933.8,1061 2172.7,1719.2 	"/>
	<g>
		<path class="st1" d="M781.8,238.5l-45.2,78.3c-1.4,2.4-0.6,5.6,1.9,7l0,0c2.4,1.4,5.6,0.6,7-1.9l45.2-78.3c1.4-2.4,0.6-5.6-1.9-7
			l0,0C786.4,235.2,783.2,236.1,781.8,238.5z"/>
		<path class="st1" d="M474.9,594.2l-70.9,56.2c-2.2,1.8-2.6,5-0.9,7.2l0,0c1.8,2.2,5,2.6,7.2,0.9l70.9-56.2c2.2-1.8,2.6-5,0.9-7.2
			l0,0C480.3,592.8,477.1,592.5,474.9,594.2z"/>
		<path class="st1" d="M443.1,504.1l-90.4-3.7c-2.8-0.1-5.2,2.1-5.3,4.9l0,0c-0.1,2.8,2.1,5.2,4.9,5.3l90.4,3.7
			c2.8,0.1,5.2-2.1,5.3-4.9l0,0C448.1,506.6,446,504.2,443.1,504.1z"/>
		<path class="st1" d="M533.9,324.9l-50.3-75.1c-1.6-2.4-4.8-3-7.1-1.4l0,0c-2.4,1.6-3,4.8-1.4,7.1l50.3,75.2c1.6,2.4,4.8,3,7.1,1.4
			l0,0C534.9,330.5,535.5,327.3,533.9,324.9z"/>
		<path class="st1" d="M636.2,202.9l-3.7,90.4c-0.1,2.8,2.1,5.2,4.9,5.3l0,0c2.8,0.1,5.2-2.1,5.3-4.9l3.7-90.4
			c0.1-2.8-2.1-5.2-4.9-5.3l0,0C638.7,197.9,636.4,200.1,636.2,202.9z"/>
		<path class="st1" d="M381.7,360.8l84.4,32.6c2.6,1,5.6-0.3,6.6-2.9l0,0c1-2.6-0.3-5.6-2.9-6.6l-84.4-32.6c-2.6-1-5.6,0.3-6.6,2.9
			l0,0C377.8,356.8,379.1,359.8,381.7,360.8z"/>
		<circle class="st2" cx="646.5" cy="489.5" r="165"/>
		<path class="st1" d="M949.7,516.8L949.7,516.8c0.1-2.8-2.1-5.2-5-5.3l-90.4-3.2c-2.8-0.1-5.2,2.1-5.3,5l0,0
			c-0.1,2.8,2.1,5.2,5,5.3l90.4,3.2C947.2,521.8,949.6,519.6,949.7,516.8z"/>
		<path class="st1" d="M537.8,661.2L537.8,661.2c-2.5-1.4-5.6-0.5-7,1.9L486,741.7c-1.4,2.5-0.5,5.6,1.9,7l0,0
			c2.5,1.4,5.6,0.5,7-1.9l44.8-78.6C541.1,665.7,540.2,662.6,537.8,661.2z"/>
		<path class="st1" d="M732.9,683.6L732.9,683.6c-2.6,1.1-3.7,4.2-2.6,6.8l37.1,82.5c1.1,2.6,4.2,3.7,6.8,2.6l0,0
			c2.6-1.1,3.7-4.2,2.6-6.8l-37.1-82.5C738.5,683.6,735.5,682.4,732.9,683.6z"/>
		<path class="st1" d="M908.4,353.3L908.4,353.3c-1.5-2.4-4.7-3.1-7.1-1.5l-76.1,48.9c-2.4,1.5-3.1,4.7-1.5,7.1l0,0
			c1.5,2.4,4.7,3.1,7.1,1.5l76.1-48.9C909.3,358.8,910,355.6,908.4,353.3z"/>
		<path class="st1" d="M904.4,662.1L904.4,662.1c1.4-2.5,0.5-5.6-1.9-7l-78.6-44.8c-2.5-1.4-5.6-0.5-7,1.9l0,0
			c-1.4,2.5-0.5,5.6,1.9,7l78.6,44.8C899.8,665.4,903,664.6,904.4,662.1z"/>
		<path class="st1" d="M632.7,802.2L632.7,802.2c2.8,0.6,5.5-1.3,6-4.1l17.1-88.8c0.6-2.8-1.3-5.5-4.1-6l0,0c-2.8-0.6-5.5,1.3-6,4.1
			l-17.1,88.8C628.1,799,629.9,801.7,632.7,802.2z"/>
	</g>
</g>
</svg>
