<?xml version="1.0" encoding="utf-8"?>
<!-- Generator: Adobe Illustrator 19.2.0, SVG Export Plug-In . SVG Version: 6.00 Build 0)  -->
<svg version="1.1" id="Layer_1" xmlns="http://www.w3.org/2000/svg" xmlns:xlink="http://www.w3.org/1999/xlink" x="0px" y="0px"
	 viewBox="0 0 2481 2073" style="enable-background:new 0 0 2481 2073;" xml:space="preserve">
<style type="text/css">
	.st0{fill:#2C3E50;}
	.st1{fill:#FFFFFF;}
	.st2{fill:#FC4349;}
</style>
<title>google-pin</title>
<title>Layer 1</title>
<g>
	<polygon class="st0" points="812.8,440 754.5,529.1 1066.3,1241.7 1807.9,1241.7 1807.9,1152.6 1124.5,1152.6 	"/>
	<path class="st0" d="M1229,1264.7c-73.8,0-133.6,59.8-133.6,133.6c0,73.8,59.8,133.6,133.6,133.6c73.8,0,133.6-59.8,133.6-133.6
		C1362.6,1324.6,1302.8,1264.7,1229,1264.7z M1229,1442.9c-24.6,0-44.5-20-44.5-44.5s20-44.5,44.5-44.5c24.6,0,44.5,20,44.5,44.5
		S1253.6,1442.9,1229,1442.9z"/>
	<path class="st0" d="M1674.3,1264.7c-73.8,0-133.6,59.8-133.6,133.6c0,73.8,59.8,133.6,133.6,133.6c73.8,0,133.6-59.8,133.6-133.6
		C1807.9,1324.6,1748.1,1264.7,1674.3,1264.7z M1674.3,1442.9c-24.5,0-44.5-20-44.5-44.5s20-44.5,44.5-44.5s44.5,20,44.5,44.5
		S1698.8,1442.9,1674.3,1442.9z"/>
	
		<rect x="815.6" y="812.2" transform="matrix(0.4054 0.9141 -0.9141 0.4054 1427.3319 -480.8792)" class="st0" width="535.4" height="89.1"/>
	
		<rect x="1578.4" y="812.2" transform="matrix(-0.4054 0.9141 -0.9141 -0.4054 3377.689 -483.4728)" class="st0" width="535.4" height="89.1"/>
	
		<rect x="1152" y="1030.2" transform="matrix(-1 -1.454732e-015 1.454732e-015 -1 2930.0095 2149.5005)" class="st0" width="626" height="89.1"/>
	<circle class="st1" cx="1229" cy="1398.4" r="78"/>
	<circle class="st1" cx="1674.3" cy="1398.4" r="78"/>
	<rect x="608.6" y="385.7" transform="matrix(0.866 0.5 -0.5 0.866 314.034 -293.4076)" class="st0" width="191.8" height="107.1"/>
	
		<rect x="932" y="587" transform="matrix(-1 -1.010643e-015 1.010643e-015 -1 2927.8462 1215.3586)" class="st0" width="1063.9" height="41.3"/>
	
		<rect x="1008.8" y="737" transform="matrix(-1 -1.010643e-015 1.010643e-015 -1 2905.6807 1515.3208)" class="st0" width="888.1" height="41.3"/>
	
		<rect x="1096.7" y="905.4" transform="matrix(-1 -1.454732e-015 1.454732e-015 -1 2930.5408 1852.0582)" class="st0" width="737.2" height="41.3"/>
	
		<rect x="1046.9" y="826.6" transform="matrix(-7.663286e-011 -1 1 -7.663286e-011 459.8223 2154.1956)" class="st0" width="520.3" height="41.3"/>
	
		<rect x="1358.2" y="826.6" transform="matrix(-7.663286e-011 -1 1 -7.663286e-011 771.191 2465.5645)" class="st0" width="520.3" height="41.3"/>
</g>
<g>
	<path class="st2" d="M567.7,1337.8c0,11.1-0.1,21.3,0,31.5c0.4,27.6,22.2,49.6,49.5,49.9c27.6,0.3,50.2-21.3,51.1-49.2
		c0.4-10.5,0.1-21,0.1-32c36.2,0,71.9,0,108.8,0c0,10.5-0.4,21.1,0.1,31.7c0.8,20.3,10.4,35.6,28.7,44.4c18.4,8.8,36.3,6.6,52.5-5.8
		c12.6-9.6,19-22.8,19.3-38.7c0.2-10.4,0-20.9,0-31.9c3.2-0.2,5.7-0.4,8.2-0.4c40.4,0,80.8,0,121.2,0c12.9,0,16,4,12.9,16.5
		c-28.6,116.7-57.2,233.4-85.9,350.2c-6.3,25.6-25.9,41-52.4,41c-106.7,0-213.5,0-320.2,0c-26,0-45.7-15.4-51.9-40.6
		c-28.7-117-57.4-233.9-86.1-350.9c-2.9-12,0.3-16.2,12.6-16.2c41.2,0,82.4,0,123.5,0C562.1,1337.5,564.4,1337.7,567.7,1337.8z"/>
	<path class="st2" d="M594.3,1315.3c0-21.5-2.1-43.2,0.4-64.4c7.2-60,60.9-107.8,121.3-110.2c63.7-2.5,120.1,40,133.3,100.9
		c2,9.4,3.1,19.2,3.2,28.8c0.4,32,0.2,64,0.1,96c0,16.1-10.3,27.4-24.9,27.6c-14.9,0.1-25.4-11.3-25.4-27.9c-0.1-31.2,0-62.4,0-93.6
		c-0.1-43.3-31.2-77.9-72.9-81.3c-41.8-3.4-78.3,25.5-85.4,68.1c-1,5.9-0.8,12-0.8,18c-0.1,30.2,0.1,60.3-0.1,90.5
		c-0.1,12.1-6.5,21.1-17,24.8c-10,3.5-21.4,0.8-27.4-8c-3.2-4.7-5.4-11-5.6-16.6c-0.7-17.5-0.3-35.1-0.3-52.7
		C593.3,1315.3,593.8,1315.3,594.3,1315.3z"/>
</g>
</svg>
