<?xml version="1.0" encoding="utf-8"?>
<!-- Generator: Adobe Illustrator 19.2.0, SVG Export Plug-In . SVG Version: 6.00 Build 0)  -->
<svg version="1.1" id="Layer_1" xmlns="http://www.w3.org/2000/svg" xmlns:xlink="http://www.w3.org/1999/xlink" x="0px" y="0px"
	 viewBox="0 0 2481 2073" style="enable-background:new 0 0 2481 2073;" xml:space="preserve">
<style type="text/css">
	.st0{fill:#FC4349;}
	.st1{fill:#FFFF50;}
	.st2{fill:#FFFFFF;}
	.st3{fill:#2C3E50;}
</style>
<title>google-pin</title>
<title>Layer 1</title>
<g>
	<g>
		<path class="st0" d="M1666.8,807.6c41.7-2.6,78.3-4.9,114.9-7c4.8-0.3,9.6,0.8,18.7,1.7c-6.3,69.3-12.2,137-18.7,204.6
			c-19.1,195.5-38.7,390.9-57.5,586.3c-5.9,61.4-10.8,66.7-79.5,64.3C1652,1375.5,1659.3,1093.4,1666.8,807.6z"/>
		<path class="st0" d="M1352.1,1641.6c-14.6-16.4-37.7-30.7-42.4-49.6c-69.3-276.4-136.1-553.4-203.1-828.8
			c51.6,15,102.3,29.8,161.2,47c34.8,268.9,70.5,544.9,106.2,820.9C1366.7,1634.6,1359.4,1638.1,1352.1,1641.6z"/>
		<path class="st0" d="M1327.5,806c43.4,3.1,82.1,5.9,125.5,9c9.6,283.4,19.1,565.2,28.6,847.1c-69.8,0.5-77.4-4.6-82.7-62.5
			C1374.9,1337.2,1351.6,1074.8,1327.5,806z"/>
		<path class="st0" d="M1499.2,809.4c39.5,0,73.4,0,111,0c0.9,8.7,3,18.2,2.8,27.7c-5.2,265-10.7,529.9-16,794.9
			c-0.4,21.8,3,42.6-31.4,42.8c-33.2,0.2-39.2-14.4-40.2-43.5c-8-238.2-17.5-476.4-26.1-714.6
			C1498.1,881.6,1499.2,846.4,1499.2,809.4z"/>
		<path class="st0" d="M1759.3,1627.7c34.9-276.9,69.3-549.7,103.4-819.8c47.9-13.2,93.8-25.8,141.4-38.9
			c-14.4,64.2-29.6,132.5-45.2,200.7c-45.4,198.9-91.5,397.7-135.9,596.8C1815.5,1600.6,1799.9,1621.4,1759.3,1627.7z"/>
	</g>
	<ellipse class="st1" cx="1268.8" cy="537.4" rx="232.2" ry="227.1"/>
	<ellipse class="st1" cx="1613.2" cy="507.1" rx="272.1" ry="281.2"/>
	<ellipse class="st1" cx="1592.1" cy="662.9" rx="458.8" ry="125.5"/>
	<ellipse class="st1" cx="1870.7" cy="569.1" rx="204.4" ry="200"/>
	<ellipse class="st2" cx="1556.7" cy="1171.2" rx="224.1" ry="139.9"/>
</g>
<g>
	<path class="st3" d="M1077.4,794.9c-92.3-77.2-212.5-121.4-342.1-115.6C460,691.5,246,924.7,258.1,1199.1
		c12.2,276.3,246.5,490.5,522.5,477.8c198.5-9.1,364.9-134,437.2-306.4C1170.5,1178.5,1124,986.3,1077.4,794.9z M391.9,1044.6
		c-2.7-56,38.8-102.1,94.3-104.8c54.7-2.6,100.9,39.1,104,93.8c3.1,55.3-38.7,101.8-94.4,105
		C441.7,1141.7,394.5,1098.9,391.9,1044.6z M507.4,1438.8c-54.4,2-100.5-40.9-102.7-95.5c-2.2-55.6,40.2-101.6,95.7-103.9
		c54.2-2.2,100.8,41,102.8,95.4C605.3,1390.4,562.6,1436.8,507.4,1438.8z M738.4,778.8c55-2.9,101.9,38.4,105.3,92.5
		c3.5,55.8-38.6,102.7-95,105.8c-54,3-101.3-39.8-103.9-94.1C642.1,828.6,684.2,781.7,738.4,778.8z M759.5,1235.5
		c-32,1.3-58.8-23.5-59.9-55.4c-1.1-31.8,24.1-59.1,55.5-60.1c31.5-1.1,58.9,24.3,60.2,55.7C816.6,1207.2,791.4,1234.2,759.5,1235.5
		z M774.2,1577.6c-54,2.3-100.9-40.7-103.7-94.9c-2.8-54.6,40.7-102,95.6-104.4c54.3-2.3,101,40.5,103.5,94.8
		C872.1,1528.2,829.1,1575.3,774.2,1577.6z M1006.9,917.5c54.4-2.4,100.7,40.3,102.8,94.8c2.1,55.8-40.2,101.8-95.4,103.9
		c-54.5,2.1-100.6-40.6-102.8-95C909.3,965.3,951.1,919.9,1006.9,917.5z M1028.2,1416.4c-54.7,2.7-101.7-40.6-103.9-95.8
		c-2.2-54.8,39.9-100.9,94.6-103.3c55.3-2.5,101.7,40.2,103.9,95.6C1124.9,1367.6,1082.8,1413.7,1028.2,1416.4z"/>
	<path class="st3" d="M152.5,1574.6c0.3,6.6,0.5,11.4,0.7,16.3c1.6,37.1,3.2,74.3,4.8,112.7c154.3-6.6,308-13.2,463.8-19.9
		c-5.5-2-9.3-3.6-13.2-4.8c-72.6-22.3-137.4-58.5-194.6-108.4c-4.3-3.8-11.1-6.9-16.6-6.7c-78.7,2.9-157.5,6.4-236.2,9.9
		C158.9,1573.6,156.6,1574.1,152.5,1574.6z"/>
</g>
</svg>
