<?xml version="1.0" encoding="utf-8"?>
<!-- Generator: Adobe Illustrator 19.2.0, SVG Export Plug-In . SVG Version: 6.00 Build 0)  -->
<svg version="1.1" id="Layer_1" xmlns="http://www.w3.org/2000/svg" xmlns:xlink="http://www.w3.org/1999/xlink" x="0px" y="0px"
	 viewBox="0 0 2481 2073" style="enable-background:new 0 0 2481 2073;" xml:space="preserve">
<style type="text/css">
	.st0{fill:#2C3E50;}
	.st1{fill:#FFFFFF;}
	.st2{fill:#FC4349;}
</style>
<title>google-pin</title>
<title>Layer 1</title>
<g>
	<ellipse class="st0" cx="1298.8" cy="890.5" rx="634.7" ry="642.2"/>
	<rect x="1256.6" y="673" class="st1" width="1105.4" height="1047.6"/>
	<path class="st0" d="M1375.4,272.1c170.7,21.8,310,100.2,418.4,233.2c40.2,49.3,72.3,103.7,95.5,167.7c-45.9,0-88.5,0-133.5,0
		c0,108.7,0,214.5,0,320.3c0,106.5,0,213.1,0,321.3c-31.7,0-60.4-3-88.4,0.5c-110.9,14.2-191.4,95.1-200.3,182.3
		c-0.7,6.8-14.2,15.7-23.1,17.9c-339.7,82.1-684.7-135.5-759.9-479C678.5,1010.3,1369.9,271.5,1375.4,272.1z M1303.9,612.8
		c-156.3-2.9-285.7,123.4-290.1,283.1c-4.3,155.5,124.5,288.8,281.7,291.5c158.8,2.7,289-123.3,292.5-283.1
		C1591.4,746.9,1463.6,615.8,1303.9,612.8z"/>
	<path class="st1" d="M1303.9,612.8c159.7,3,287.5,134.2,284.1,291.6c-3.5,159.8-133.8,285.8-292.5,283.1
		c-157.1-2.7-285.9-136-281.7-291.5C1018.2,736.2,1147.6,609.9,1303.9,612.8z M1301.2,1154.6c139.9-0.2,253.5-113.6,254-253.6
		c0.5-140.6-114.4-256-254.6-255.8c-140.2,0.2-254.9,116-254.1,256.4C1047.3,1041.5,1161.5,1154.8,1301.2,1154.6z"/>
	<path class="st2" d="M1799.2,1369.8c0-219,0-434.9,0-653.1c58-1.4,112.4,7.6,164.6,26c28.9,10.2,57.8,23.3,83.2,40.3
		c59.9,40.1,84,98.5,73.9,169.4c-11,76.9-48.5,142.6-95,210.8c9.6-39.7,19.6-72.8,25.2-106.7c4.1-24.7,5.1-50.5,2.8-75.4
		c-6.9-74.7-68.9-121.4-147.5-110.3c0,9,0,18.5,0,28c0,193.3-5.6,386.9,1.8,579.9c5.6,146.2-121.5,212.3-232.5,196.4
		c-46.3-6.7-87.9-24.4-121.5-58.1c-58.9-59.2-59.5-145.2,0.8-202.9c60.6-58,134-69.7,213.8-52.2
		C1777.4,1363.8,1785.9,1366.4,1799.2,1369.8z"/>
	<path class="st0" d="M1301.2,1154.6c-139.8,0.2-253.9-113.1-254.7-252.9c-0.8-140.5,113.9-256.2,254.1-256.4
		c140.2-0.2,255.1,115.2,254.6,255.8C1554.7,1040.9,1441.2,1154.3,1301.2,1154.6z M1302.1,740.4c-88.6-0.7-160.6,70.5-161,159.2
		c-0.4,87.4,70.3,159.4,157.4,160.6c88.3,1.2,161-69.7,162.3-158.2C1462.2,813.9,1390.6,741.1,1302.1,740.4z"/>
	<path class="st1" d="M1302.1,740.4c88.5,0.7,160.1,73.5,158.7,161.5c-1.4,88.6-74.1,159.4-162.3,158.2
		c-87.1-1.2-157.8-73.2-157.4-160.6C1141.5,810.9,1213.4,739.7,1302.1,740.4z"/>
</g>
</svg>
