<?xml version="1.0" encoding="utf-8"?>
<!-- Generator: Adobe Illustrator 19.2.0, SVG Export Plug-In . SVG Version: 6.00 Build 0)  -->
<svg version="1.1" id="Layer_1" xmlns="http://www.w3.org/2000/svg" xmlns:xlink="http://www.w3.org/1999/xlink" x="0px" y="0px"
	 viewBox="0 0 2481 2073" style="enable-background:new 0 0 2481 2073;" xml:space="preserve">
<style type="text/css">
	.st0{fill:#FC4349;}
	.st1{fill:#FEFEFE;}
	.st2{fill:#FC4349;stroke:#FC4349;stroke-width:32;stroke-miterlimit:10;}
	.st3{fill:#2C3E50;}
</style>
<title>google-pin</title>
<title>Layer 1</title>
<g>
	<path class="st0" d="M511.3,1040.9c9.9,3.2,19.3,7.5,30.4,6.4c169.5-17.9,321.2,30.7,460.4,124.3c19,12.8,38.3,15.1,60.1,14.9
		c182.6-1.7,356.2,34.9,516.7,125c23.2,13,44.3,29.8,70.5,37c18.4,5.1,33.6,4.1,45.3-15.6c85.6-144.3,171.8-288.3,258.5-431.9
		c10.1-16.8,10.1-31.7,6.3-50.2c-17.6-85-73.5-134.5-148.9-167.8c-117.4-51.8-238.5-67-364.1-37.5c-12.3,2.9-20.6,1.5-31-6.5
		c-64.5-50.2-134.5-81.3-214.4-89.3c-73.5-3.4-87.1-7.6-156,5.1c-59.7,11.1-112.8,49.2-121.9,55.3
		c-122.2,82-244.3,164.4-366.5,246.7c-16.8,11.3-35.3,20.9-45.4,39.9C511.3,944.8,511.3,992.9,511.3,1040.9z"/>
	<path class="st1" d="M1119.8,1019.2c72.8-0.6,138,4.6,202.8,14.3c103.8,15.5,202,47.1,289.9,105.7c15.5,10.3,21.4,6.8,29.8-6.9
		c70.7-115.9,141.3-232,213.6-346.9c11.9-18.9,4.8-25.6-9.2-34.4c-89.1-55.8-186.6-80.6-291.2-79c-13.3,0.2-26.6,1.5-39.9,2.2
		c-53,2.9-93.5,25.3-130.1,65.9C1301.2,833.8,1212,923,1119.8,1019.2z"/>
	<path class="st1" d="M618.4,875.7c145.7-2.3,278.2,19.1,397.7,94.3c3.8,2.4,7.5,4.8,11.3,7.1c15.7,9.4,29.3,31,45.3,28.2
		c14.2-2.5,25.3-23.1,37.6-35.9c89.2-93,178.1-186.4,268-278.7c14.1-14.5,12.8-20-3.6-30.2c-85-52.7-178.1-62.9-276-62.6
		c-80.9,0.2-137.5,45.3-198.2,85.8c-87.2,58.2-174,117.1-260.9,175.7C634.1,863.2,628.9,867.6,618.4,875.7z"/>
	<path class="st1" d="M1641.3,1297.1c-2.9-32.9-12.4-62.4-20.1-92.3c-3-11.5-12-17.2-20.7-23.3c-79.4-55.2-168.2-86.3-262.8-103.4
		c-83.6-15.1-167.8-17.6-252.2-16.6c-16.9,0.2-30-4-43.3-15.1c-99.7-83.1-217.4-116.7-344.6-123.8c-41.8-2.3-83.4,0.2-125,3.5
		c-13.4,1.1-19.1,5-19.4,20.6c-1.2,56.3-2,57.2,54.3,56.2c146.3-2.7,277.4,43.7,398.8,122c20.7,13.4,41.7,18.2,67.1,18.7
		c199.3,3.9,389.5,43,560.1,152.7C1634.5,1297.1,1636.5,1296.7,1641.3,1297.1z"/>
	<path class="st1" d="M1895.7,799.2c-54.3,88.9-105.4,172.8-156.8,256.6c-22.7,37.1-45.3,74.2-69.4,110.4c-7.3,11-7.2,19.9-3.5,31.5
		c6.9,21.5,12.1,43.5,19.1,69.3c28-46.3,54.6-89.9,80.8-133.7c48.3-80.7,96-161.7,144.7-242.1c8-13.2,11.1-25.1,4.8-39.6
		C1908.8,836.3,1903.6,820.5,1895.7,799.2z"/>
	<line class="st2" x1="1069.6" y1="1033.6" x2="1047.6" y2="1170.9"/>
	<g>
		<g>
			<path class="st3" d="M1428.8,757.4c13.3-0.7,26.6-2,39.9-2.2c104.6-1.6,202.1,23.2,291.2,79c10.1,6.3,16.5,11.6,15,21
				c9.4-13.6,18.8-27.1,28.4-40.5c-22.6-19.6-49.5-35.4-79.5-48.6c-89.5-39.5-181.1-57.7-275.2-51.1c-9.2,12-18.5,24.1-27.9,35.9
				c-2.1,2.6-4.1,5.2-6.2,7.8C1419.1,758.1,1424,757.7,1428.8,757.4z"/>
		</g>
		<g>
			<path class="st3" d="M1328.7,722c-64.5-50.2-134.5-81.3-214.4-89.3c-48.5-2.3-70.9-4.9-100.3-2.7c-9.3,8.6-18.9,16.9-28.8,24.9
				c-6.1,4.9-12.3,9.8-18.5,14.6c6.4,4.1,12.5,8.6,18.4,13.4c8.7-1.2,17.6-1.8,26.7-1.8c97.9-0.3,191,9.9,276,62.6
				c2.6,1.6,4.8,3.1,6.6,4.5c-0.5,0.3-1,0.6-1.4,0.9l0,0c12.6-8.3,25.6-15.9,37.8-24.7c0.2-0.1,0.3-0.3,0.5-0.4
				C1330.5,723.3,1329.6,722.7,1328.7,722z"/>
		</g>
	</g>
	<g>
		<path class="st3" d="M1712.7,897.9c-22.6-19.6-49.5-35.4-79.5-48.6c-89.5-39.5-181.1-57.7-275.2-51.1c-9.2,12-18.5,24.1-27.9,35.9
			c-2.1,2.6-4.1,5.2-6.2,7.8c4.7-0.6,9.5-1,14.3-1.3c13.3-0.7,26.6-2,39.9-2.2c104.6-1.6,202.1,23.2,291.2,79
			c10.1,6.3,16.5,11.6,15,21C1693.7,924.8,1703.1,911.3,1712.7,897.9z"/>
		<g>
			<path class="st3" d="M1238.2,805.2c-64.5-50.2-134.5-81.3-214.4-89.3c-48.5-2.3-70.9-4.9-100.3-2.7c-9.3,8.6-18.9,16.9-28.8,24.9
				c-6.1,4.9-12.3,9.8-18.5,14.6c6.4,4.1,12.5,8.6,18.4,13.4c8.7-1.2,17.5-1.8,26.6-1.8c97.9-0.3,191,9.9,276,62.6
				c2.6,1.6,4.8,3.1,6.6,4.5c-0.9,0.6-1.7,1.1-2.6,1.7c0,0,0,0.1,0.1,0.1c12.9-8.6,26.5-16.5,39-25.5c0.2-0.1,0.3-0.3,0.5-0.4
				C1240,806.6,1239.1,805.9,1238.2,805.2z"/>
		</g>
	</g>
	<g>
		<g>
			<path class="st3" d="M1212.7,962.4c-3.7,1-7.4,2-11,3.1C1205.4,964.4,1209.1,963.4,1212.7,962.4z"/>
			<path class="st3" d="M1601,1051.8c10.1-15.1,20.1-30.2,30.2-45.1c-24-21.7-52.5-39.3-84.2-54c-94.8-43.8-191.8-64-291.5-56.7
				c-9.8,13.3-19.5,26.7-29.6,39.8c-2,2.6-4,5.2-6,7.8c0.4,0.2,0.9,0.5,1.3,0.8c4.4-0.6,8.8-1,13.4-1.2c14-0.8,28.1-2.3,42.2-2.5
				c110.8-1.8,214,25.8,308.4,87.7c10.7,7,17.5,12.8,15.9,23.3C1601.1,1051.7,1601,1051.8,1601,1051.8z"/>
		</g>
		<g>
			<path class="st3" d="M1128.6,903.7c-68.3-55.7-142.4-90.2-227.1-99.1c-51.3-2.5-75.1-5.4-106.2-3c-9.8,9.6-20,18.8-30.4,27.6
				c-6.5,5.5-13,10.9-19.6,16.2c6.8,4.6,13.4,9.6,19.6,15c9.1-1.3,18.4-2,28.2-2c103.7-0.3,202.3,11,292.3,69.5
				c2.7,1.8,5.1,3.4,6.9,5c12.9-8.8,26.2-17,38.7-26.5c0.2-0.2,0.3-0.3,0.5-0.5C1130.5,905.3,1129.6,904.5,1128.6,903.7z"/>
		</g>
	</g>
</g>
</svg>
