<?xml version="1.0" encoding="utf-8"?>
<!-- Generator: Adobe Illustrator 19.2.0, SVG Export Plug-In . SVG Version: 6.00 Build 0)  -->
<svg version="1.1" id="Layer_1" xmlns="http://www.w3.org/2000/svg" xmlns:xlink="http://www.w3.org/1999/xlink" x="0px" y="0px"
	 viewBox="0 0 2481 2073" style="enable-background:new 0 0 2481 2073;" xml:space="preserve">
<style type="text/css">
	.st0{fill:#2C3E50;}
	.st1{fill:#FC4349;}
</style>
<title>google-pin</title>
<title>Layer 1</title>
<title>google-pin</title>
<title>Layer 1</title>
<title>google-pin</title>
<title>Layer 1</title>
<g>
	<path class="st0" d="M1152.1,830.5c29.8,47.3,58,92.2,86.3,137.1c7.4,11.7,13.1,23.4,15.5,37.6c6.2,36.6-10.4,61.6-38,81.1
		c-53.3,37.9-107.2,75-160.8,112.4c-37.3,26-74.3,52.6-112.2,77.8c-34,22.7-84.3,16.4-109.4-12.3c-25.3-28.8-24.8-77.2,1.9-109.1
		c6.3-7.5,14.1-14.1,22.2-19.6c60.9-41.8,122-83.1,183-124.7c3.4-2.3,6.7-4.9,10.6-7.8c-1.7-3-3.1-5.6-4.7-8.1
		c-46-69.5-91.1-139.7-138.3-208.4c-35.9-52.2-31.9-120.9,1.7-168.2c35.9-50.6,97.1-72.1,158.3-56.6
		c103.2,26.1,206.2,52.5,309.7,77.4c48.4,11.6,78.9,40.4,96.1,86.2c32.4,86.4,65.6,172.5,99,258.6c1.6,4.1,7.9,7.8,12.6,9
		c69.8,17.4,139.7,34.4,209.7,51.2c18.5,4.5,33.4,13.6,41.7,31.1c10.3,21.6,8.6,42.7-6.6,61.4c-15.2,18.7-35.6,24.7-58.8,19.1
		c-67-16.2-133.8-32.7-200.8-49.1c-24.5-6-49-12.4-73.6-17.8c-27.1-6-45.6-21.2-56.9-46.7c-21.9-49.7-44.8-99-67.6-148.4
		c-1.8-3.9-6-8.5-9.9-9.5C1293.7,866.2,1224.3,848.8,1152.1,830.5z"/>
	<path class="st1" d="M513.6,1289.1c3.7-14.9,7-28.5,10.6-43.1c4.4,1,8.4,1.7,12.4,2.7c429.5,106,859.1,212.1,1288.6,318.2
		c18.1,4.5,36,7.9,54,0.2c20.2-8.6,33.6-23.5,40.3-45.6c14.4,3.6,28.3,7.2,43.3,11c-10,35.7-31.1,60.6-64.2,75.3
		c-26.3,11.7-53.2,11-80.9,4.2c-175.7-43.7-351.5-87-527.2-130.5c-254.9-63-509.8-126.1-764.6-189.1
		C522.2,1291.4,518.5,1290.4,513.6,1289.1z"/>
	<path class="st0" d="M1651,833.1c-58.4,17.1-119.9-16.2-137.4-74.4c-17.3-57.8,16.4-120.1,74.4-137.5c58.5-17.6,121.5,16.7,138,75
		C1742.8,755.3,1709.5,816,1651,833.1z"/>
</g>
</svg>
