<?xml version="1.0" encoding="utf-8"?>
<!-- Generator: Adobe Illustrator 19.2.0, SVG Export Plug-In . SVG Version: 6.00 Build 0)  -->
<svg version="1.1" id="Layer_1" xmlns="http://www.w3.org/2000/svg" xmlns:xlink="http://www.w3.org/1999/xlink" x="0px" y="0px"
	 viewBox="0 0 2481 2073" style="enable-background:new 0 0 2481 2073;" xml:space="preserve">
<style type="text/css">
	.st0{fill:#2C3E50;}
	.st1{fill:#FFFFFF;}
	.st2{fill:#FC4349;}
	.st3{fill:#FFFFFF;stroke:#2C3E50;stroke-width:35;stroke-miterlimit:10;}
</style>
<title>google-pin</title>
<title>Layer 1</title>
<g>
	<path class="st0" d="M1203.1,1060.3c-3-9.6-6.4-19.2-8.8-28.9c-23.5-94.4-3.6-178.9,59-253.2c25.3-30,56.7-52,92.1-68.6
		c151.8-71.2,303.4-142.9,455.2-214c115.5-54.1,258.2-18,333.3,85.1c60,82.3,71.5,172.2,35.3,267.4c-18.5,48.6-50.1,87.9-91.7,119.1
		c-1,0.8-1.9,1.7-2.9,2.6c-30.2,14.2-60.4,28.4-90.6,42.6c-1.1,0.1-2.2,0-3.2,0.2c-52.7,12.9-104.7,10.5-156.1-6.7
		c-2.8-0.9-6.7-0.6-9.4,0.6c-30.3,14-60.4,28.4-90.7,42.4c-4.1,1.9-6.3,4.5-7.9,8.6c-15.1,39.2-37.6,73.6-68.5,102.2
		c-8.9,8.2-18.4,15.8-27.6,23.6c-30.2,14.2-60.4,28.4-90.6,42.6c-0.7,0-1.5-0.2-2.2,0c-39.2,9.9-78.8,11.4-118.5,3.7
		c-71.9-14-129.6-50.8-172.9-109.8c-6.4-8.7-11.9-18.1-17.9-27.1C1213.3,1082,1208.2,1071.2,1203.1,1060.3z M1601.1,669.1
		c0,0,0-0.1,0-0.1c-74.7,35.1-149.3,70.4-224,105.4c-28.8,13.5-53.7,31.9-74,56.4c-57.8,70-61.7,170.3-9.4,245.3
		c52.4,75,149.6,106.3,235.2,74.2c67.6-25.3,110.3-74.1,128.3-144.2c1-4,2.7-6.4,6.6-8.1c50.1-23.4,100.2-47,150.2-70.7
		c3.6-1.7,6.4-1.7,10,0.1c20.9,10.6,43.2,17,66.4,19.9c78.6,9.9,159.9-29.5,198.3-98.3c41.8-75,39-149.5-9.4-220.7
		c-53.3-78.3-160.3-107.7-246.5-68.1C1755.2,595.9,1678.3,632.8,1601.1,669.1z"/>
	<path class="st0" d="M1796.9,160.3c3.5,11.5,8,23,10.4,34.6c15.9,75.4-0.2,132.2-47.3,170.1c-6.3,5-13.6,8.6-20.8,12.1
		c-44,21-88.5,41-132.2,62.7c-41.9,20.8-54.1,77.9-30.2,134.3c0.4,1,0.8,2,1.3,3.4c-16.5,7.8-32.9,15.5-49.4,23.3
		c-7.5-14.9-13-30.2-16.3-45.9c-15.8-75.3-0.2-132.4,46.9-170.3c6.7-5.4,14.5-9.3,22.2-13c42.6-20.3,85.4-40.3,128-60.4
		c39.8-18.8,55.2-67.7,38.3-122.4c-1.8-5.8-4.4-11.5-6.6-17.3c16.6-7.8,33.1-15.6,49.7-23.4C1793.1,152.1,1795,156.2,1796.9,160.3z"
		/>
	<path class="st1" d="M1620.5,1183.5c9.2-7.9,18.7-15.4,27.6-23.6c30.9-28.6,53.4-63,68.5-102.2c1.6-4.1,3.8-6.7,7.9-8.6
		c30.3-14,60.4-28.4,90.7-42.4c2.7-1.2,6.6-1.6,9.4-0.6c51.4,17.1,103.4,19.6,156.1,6.7c1-0.3,2.1-0.2,3.2-0.2
		C1862.8,1069.5,1741.7,1126.5,1620.5,1183.5z"/>
	<path class="st1" d="M1218.4,1092.9c5.9,9.1,11.5,18.4,17.9,27.1c43.3,59.1,101,95.8,172.9,109.8c39.7,7.7,79.3,6.2,118.5-3.7
		c0.7-0.2,1.5,0,2.2,0c-67.9,31.9-135.8,63.9-203.7,95.8C1290.3,1245.6,1254.3,1169.3,1218.4,1092.9z"/>
	<path class="st1" d="M1601.1,669.1c77.2-36.3,154.2-73.2,231.7-108.9c86.1-39.6,193.2-10.2,246.5,68.1
		c48.4,71.2,51.2,145.7,9.4,220.7c-38.4,68.9-119.8,108.2-198.3,98.3c-23.3-2.9-45.5-9.3-66.4-19.9c-3.5-1.8-6.4-1.7-10-0.1
		c-50,23.7-100.1,47.2-150.2,70.7c-3.8,1.8-5.5,4.1-6.6,8.1c-18,70-60.6,118.8-128.3,144.2c-85.6,32.1-182.9,0.8-235.2-74.2
		c-52.3-75-48.5-175.3,9.4-245.3c20.3-24.5,45.2-42.9,74-56.4c74.7-35,149.4-70.2,224-105.4C1601,669,1601,669.1,1601.1,669.1z
		 M1405.7,940.2c-2.5,1.2-4.3,2-6.1,2.9c-15.8,7.4-31.6,14.8-47.3,22.3c-12.4,5.9-16.3,17-10.6,29.5c5.1,11.1,10.3,22.1,15.6,33.1
		c6.1,12.8,16.9,16.7,29.7,10.7c15.8-7.4,31.6-14.8,47.3-22.3c1.8-0.9,3.6-1.7,5.9-2.8c1.2,2.5,2.1,4.4,2.9,6.2
		c7.4,15.8,14.8,31.6,22.3,47.3c6,12.6,16.8,16.3,29.4,10.4c10.9-5.1,21.7-10.2,32.6-15.3c13.8-6.5,17.5-16.8,11-30.9
		c-7.2-15.5-14.5-30.9-21.8-46.3c-0.9-1.8-1.7-3.6-2.8-6c2.5-1.2,4.3-2,6.1-2.9c15.8-7.4,31.6-14.8,47.3-22.3
		c12.5-5.9,16.4-16.8,10.6-29.3c-5.1-11.1-10.3-22.1-15.6-33.1c-6.1-12.8-17.1-16.8-29.8-10.9c-15.8,7.4-31.6,14.8-47.3,22.3
		c-1.8,0.9-3.6,1.7-5.9,2.8c-1.1-2.4-2-4.3-2.9-6.1c-7.4-15.8-14.8-31.6-22.3-47.3c-6-12.5-16.9-16.3-29.5-10.5
		c-10.2,4.7-20.4,9.6-30.5,14.4c-16.3,7.7-19.8,17.3-12.2,33.5C1389.7,906.1,1397.5,922.7,1405.7,940.2z M1843,689.7
		c9.6,20.3,33.4,28.9,53.6,19.5c20.4-9.5,29.3-33.9,19.7-54.1c-9.5-20.2-34-28.9-54.3-19.2C1841.9,645.5,1833.4,669.4,1843,689.7z
		 M2004.6,748c20.5-9.5,29.3-33.7,19.7-54.1c-9.5-20-33.7-28.8-53.8-19.4c-20.2,9.4-29.1,33.4-19.7,53.6
		C1960.3,748.8,1984.1,757.5,2004.6,748z M1857.9,817c20.2-9.5,28.9-33.4,19.6-53.7c-9.3-20.2-33.9-29.2-54.2-19.6
		c-20.2,9.5-28.8,33.5-19.5,53.7C1813.4,817.9,1837.5,826.6,1857.9,817z M1965.7,856c20.4-9.5,29.3-33.8,19.8-54.1
		c-9.4-20-33.7-28.8-53.8-19.5c-20.1,9.3-29,33.4-19.7,53.6C1921.3,856.7,1945.2,865.5,1965.7,856z"/>
	<path class="st0" d="M1405.7,940.2c-8.2-17.4-16-34.1-23.8-50.7c-7.6-16.2-4.1-25.8,12.2-33.5c10.2-4.8,20.3-9.6,30.5-14.4
		c12.5-5.8,23.4-2,29.5,10.5c7.6,15.7,14.9,31.5,22.3,47.3c0.9,1.8,1.7,3.7,2.9,6.1c2.3-1.1,4.1-1.9,5.9-2.8
		c15.8-7.4,31.5-14.9,47.3-22.3c12.7-5.9,23.7-1.9,29.8,10.9c5.3,11,10.5,22,15.6,33.1c5.8,12.5,1.8,23.4-10.6,29.3
		c-15.8,7.5-31.6,14.9-47.3,22.3c-1.8,0.9-3.6,1.7-6.1,2.9c1.1,2.4,2,4.2,2.8,6c7.3,15.4,14.6,30.9,21.8,46.3
		c6.5,14,2.8,24.4-11,30.9c-10.9,5.1-21.7,10.2-32.6,15.3c-12.6,5.9-23.3,2.2-29.4-10.4c-7.6-15.7-14.9-31.5-22.3-47.3
		c-0.9-1.8-1.7-3.7-2.9-6.2c-2.3,1.1-4.1,1.9-5.9,2.8c-15.8,7.4-31.5,14.9-47.3,22.3c-12.8,6-23.6,2.1-29.7-10.7
		c-5.3-11-10.5-22-15.6-33.1c-5.8-12.5-1.8-23.6,10.6-29.5c15.7-7.5,31.5-14.9,47.3-22.3C1401.4,942.2,1403.3,941.3,1405.7,940.2z"
		/>
	<path class="st2" d="M1843,689.7c-9.6-20.3-1.1-44.2,19-53.8c20.3-9.7,44.8-1,54.3,19.2c9.5,20.2,0.6,44.6-19.7,54.1
		C1876.4,718.6,1852.5,709.9,1843,689.7z"/>
	<path class="st0" d="M2004.6,748c-20.5,9.6-44.3,0.8-53.9-19.9c-9.3-20.2-0.5-44.1,19.7-53.6c20.1-9.4,44.3-0.6,53.8,19.4
		C2033.9,714.2,2025.1,738.4,2004.6,748z"/>
	<path class="st2" d="M1856.3,815.3c-20.5,9.6-44.6,0.9-54-19.5c-9.4-20.3-0.7-44.2,19.5-53.7c20.3-9.6,44.9-0.7,54.2,19.6
		C1885.2,782,1876.5,805.8,1856.3,815.3z"/>
	<path class="st0" d="M1965.7,856c-20.5,9.5-44.4,0.7-53.8-20c-9.2-20.2-0.4-44.3,19.7-53.6c20.1-9.3,44.4-0.4,53.8,19.5
		C1995,822.2,1986.1,846.5,1965.7,856z"/>
	<path class="st0" d="M1622.3,747.2L1553,781c-7.2,3.5-10.2,12.2-6.7,19.4v0c3.5,7.2,12.2,10.2,19.4,6.7l69.3-33.8
		c7.2-3.5,10.2-12.2,6.7-19.4v0C1638.1,746.7,1629.4,743.7,1622.3,747.2z"/>
	<path class="st0" d="M1725.8,696.6l-69.3,33.8c-7.2,3.5-10.2,12.2-6.7,19.4v0c3.5,7.2,12.2,10.2,19.4,6.7l69.3-33.8
		c7.2-3.5,10.2-12.2,6.7-19.4v0C1741.7,696.1,1733,693.1,1725.8,696.6z"/>
</g>
<g>
	<path class="st3" d="M1153.6,1338.3l-636.7-120.5c-6.5-1.2-12.8,3.1-14,9.6l-48.4,255.5c-1.2,6.5,3.1,12.8,9.6,14l636.7,120.5
		c6.5,1.2,12.8-3.1,14-9.6l48.4-255.5C1164.4,1345.8,1160.1,1339.5,1153.6,1338.3z"/>
	<path class="st0" d="M952.4,1013.9l-129.7-24.5c-6.5-1.2-12.8,3.1-14,9.6l-43.3,229c-1.2,6.5,3.1,12.8,9.6,14l129.7,24.5
		c6.5,1.2,12.8-3.1,14-9.6l43.3-229C963.2,1021.5,958.9,1015.2,952.4,1013.9z"/>
	
		<ellipse transform="matrix(0.186 -0.9826 0.9826 0.186 -82.7163 1588.5549)" class="st2" cx="917.4" cy="844.2" rx="152" ry="152"/>
	<path class="st2" d="M691.6,1155l-129.7-24.6c-6.5-1.2-12.8,3.1-14,9.6l-8.6,45.4c-1.2,6.5,3.1,12.8,9.6,14l129.7,24.6
		c6.5,1.2,12.8-3.1,14-9.6l8.6-45.4C702.4,1162.5,698.1,1156.2,691.6,1155z"/>
</g>
</svg>
