<?xml version="1.0" encoding="utf-8"?>
<!-- Generator: Adobe Illustrator 19.2.0, SVG Export Plug-In . SVG Version: 6.00 Build 0)  -->
<svg version="1.1" id="Layer_1" xmlns="http://www.w3.org/2000/svg" xmlns:xlink="http://www.w3.org/1999/xlink" x="0px" y="0px"
	 viewBox="0 0 2481 2073" style="enable-background:new 0 0 2481 2073;" xml:space="preserve">
<style type="text/css">
	.st0{fill:#FC4349;}
	.st1{fill:#2C3E50;}
</style>
<title>google-pin</title>
<title>Layer 1</title>
<g>
	<g>
		<path class="st0" d="M1980.4,560.1c-80-65.3-158.1-129.1-237.4-193.8c18.3-22.5,37.5-46.1,56.8-69.7
			c12.3-15.1,24.4-30.4,36.9-45.3c25.1-29.9,63.7-34.3,94.1-10.1c45.3,36.1,90.4,72.5,134.9,109.5c28.1,23.2,32.7,61.1,10.6,89.6
			C2045.1,480.6,2012.7,519.9,1980.4,560.1z"/>
		<path class="st0" d="M1116.9,1378c6.4-89.6,12.4-175.7,18.4-260.7c77.7,63.4,155.1,126.7,232,189.5
			C1286.6,1329.7,1202.7,1353.6,1116.9,1378z"/>
		
			<rect x="1145.6" y="684.3" transform="matrix(0.6302 -0.7764 0.7764 0.6302 -73.609 1517.9657)" class="st0" width="822.4" height="304"/>
	</g>
	<g>
		<path class="st1" d="M505,333.6c6.3-26.1,15.3-50.8,34.8-70.4c26.9-27.1,60.1-37.6,97.6-37.6c251.7,0.1,503.4-0.1,755,0.1
			c48.5,0,97.2-1,145.6,2.1c57.7,3.7,103.9,53.1,107.3,111.2c1.4,23.6,0.8,47.3,0.8,70.9c0,3.5-0.8,8-3,10.5
			c-37.3,41.8-74.9,83.4-112.4,125.1c-0.2,0.3-0.8,0.2-3.4,0.7c-0.2-4.4-0.6-8.6-0.7-12.8c0-57.4-0.3-114.9,0.2-172.3
			c0.1-10.9-1.9-15.2-14.3-15.2c-291.4,0.4-582.7,0.3-874.1,0.3c-3.8,0-7.5,0-12.6,0c-0.3,5.8-0.9,10.7-0.9,15.6
			c0,390.2,0,780.4-0.3,1170.6c0,11.9,2.9,15.6,15.3,15.6c290.5-0.4,581.1-0.4,871.6,0c12.2,0,15.5-3.2,15.5-15.4
			c-0.5-77.7-0.1-155.4-0.5-233.1c-0.1-10,2.7-17.5,9.4-24.8c34.3-37.8,68.2-75.9,102.3-113.9c1.6-1.8,3.6-3.4,7.4-6.9
			c0.4,5.9,0.9,9.7,0.9,13.6c0.1,123.7,0,247.5,0.1,371.2c0,51.8-20.8,92.4-67.8,115.2c-18.3,8.9-40.5,13.7-60.9,13.8
			c-294.3,0.8-588.7,0.7-883,0.4c-51.3,0-91.7-20.9-115.8-67.5c-6.5-12.5-9.4-26.9-13.9-40.4C505,1151.3,505,742.5,505,333.6z"/>
		<path class="st1" d="M1073.8,626.6c-92.5,0-185,0.3-277.4-0.4c-12.7-0.1-26.4-2.4-37.8-7.7c-25.2-11.9-36.4-39.4-30.2-67.3
			c5.6-24.9,28.7-42.8,57.9-44.9c2.1-0.1,4.2-0.1,6.3-0.1c188.8,0,377.5,0,566.3,0c35.3,0,59.8,19.9,64.7,51.9
			c4.8,31.3-18.2,62.5-49.6,67c-7.5,1.1-15.1,1.4-22.7,1.4C1258.8,626.7,1166.3,626.7,1073.8,626.6z"/>
		<path class="st1" d="M1340.1,759.5c-20.2,22.7-38.6,43.3-57.1,63.9c-14.4,16-28.5,32.3-43.4,47.7c-3.6,3.7-9.9,6.7-15,6.8
			c-145.2,0.3-290.5,0.4-435.7,0.2c-31.6,0-57.6-21.8-61.1-49.8c-4.1-31.9,12.9-59.1,42.4-67.3c6.4-1.8,13.3-2.1,20-2.2
			c179-0.1,358-0.1,537.1-0.1C1330.6,758.8,1333.9,759.2,1340.1,759.5z"/>
		<path class="st1" d="M1116.9,1007.1c-23.1,40.6-44.2,78-65.8,115.1c-1.6,2.7-6.8,4.5-10.3,4.5c-84.9,0.2-169.8,0.5-254.6,0
			c-33.5-0.2-58.5-25.7-59.2-58.5c-0.8-32.7,23.3-58.4,56.9-60.8c5-0.4,10.1-0.3,15.2-0.3c100.1,0,200.2,0,300.2,0
			C1104.2,1007.1,1109.1,1007.1,1116.9,1007.1z"/>
		<path class="st1" d="M977.2,1378.6c-18.3,0-36.4,0-54.5,0c-44.3,0-88.6,0.4-132.9-0.1c-41.6-0.5-67.2-29.8-62.1-69.9
			c3.7-28.8,29.2-49.5,62.4-49.6c66.7-0.3,133.3-0.1,200-0.1c6.2,0,12.4,0,20.9,0C999.6,1299.6,988.6,1338.3,977.2,1378.6z"/>
	</g>
</g>
</svg>
